<?xml version="1.0" encoding="utf-8"?>
<!-- Generator: Adobe Illustrator 12.0.0, SVG Export Plug-In . SVG Version: 6.00 Build 51448)  -->
<!DOCTYPE svg PUBLIC "-//W3C//DTD SVG 1.1//EN" "http://www.w3.org/Graphics/SVG/1.1/DTD/svg11.dtd" [
	<!ENTITY ns_svg "http://www.w3.org/2000/svg">
	<!ENTITY ns_xlink "http://www.w3.org/1999/xlink">
]>
<svg  version="1.1" id="emergency_x5F_Brennan_xA0_Image_1_" xmlns="&ns_svg;" xmlns:xlink="&ns_xlink;" width="120" height="120"
	 viewBox="0 0 120 120" overflow="visible" enable-background="new 0 0 120 120" xml:space="preserve">
<g>
	<g>
		<path fill-rule="evenodd" clip-rule="evenodd" d="M27.36,1.44c2.033-0.417,3.633,0.438,4.32,1.2c2.3,2.55,0.427,8.681-4.8,7.44
			C23.302,9.23,22.808,2.375,27.36,1.44z"/>
		<path fill-rule="evenodd" clip-rule="evenodd" d="M21.6,8.4c2.065,1.784,3.354,5.093,8.4,4.08c2.308-0.463,3.393-2.541,4.8-4.08
			c4.375,1.85,7.538,5.855,8.16,11.28c0.22,1.913-0.139,3.783,0,5.52c0.472,5.918,2.462,10.266,6.24,13.44
			c1.366,1.148,2.497,1.697,2.64,3.12c0.424,4.206-5.222,5.382-9.36,6c-9.931,1.484-18.694,1.497-28.56,0
			C9.823,47.139,4.381,45.675,4.56,42c0.141-2.892,3.836-3.575,5.52-5.76c2.029-2.634,3.241-6.846,3.6-11.28
			c0.124-1.531-0.157-3.349,0-5.04C14.221,14.087,17.473,10.355,21.6,8.4z"/>
		<path fill-rule="evenodd" clip-rule="evenodd" d="M120,107.52c0,4.16,0,8.32,0,12.48c-29.2,0-58.4,0-87.6,0
			c2.862-10.978,12.655-15.025,22.56-18.96c3.83-1.89,8.925-3.008,10.56-6.72c0.801-1.816,0.899-5.725,0.48-7.44
			c-0.486-1.992-2.642-3.898-3.6-6c-0.148-0.324-0.065-0.797-0.24-1.2c-0.473-1.088-0.99-2.108-1.2-3.6
			c-2.349-2.567-5.389-5.954-4.8-11.76c0.151-1.494,1.364-3.111,1.44-4.8c0.039-0.872-0.311-2.386-0.48-3.36
			c-0.788-4.52-1.08-11.255-0.24-15.36c0.246-1.203,0.372-2.331,0.72-3.36c0.31-0.916,0.947-1.509,1.44-2.4
			c0.557-1.006,0.685-2.147,1.2-2.88c1.091-1.551,3.051-2.484,4.319-4.08c2.377-1.008,5.245-3.154,8.881-3.6
			c1.987-0.244,4.709,0,7.199,0c4.671,0,7.803,0.088,10.32,1.68c0.985,0.623,1.618,1.637,2.64,2.16
			c1.67,0.855,3.341,0.827,4.801,1.68c4.325,3.704,6.556,7.126,7.199,12.72c0.521,4.516-0.103,9.879-0.72,13.2
			c-0.265,1.427-1.004,2.789-0.96,4.08c0.031,0.928,0.447,1.521,0.72,2.4c0.908,2.925,0.214,7.299-0.72,9.359
			c-0.784,1.73-2.702,2.481-3.6,4.32c-0.735,1.505-0.859,3.728-1.681,5.52c-1.029,2.248-3.021,3.818-3.359,5.761
			c-0.288,1.645,0.008,5.696,0.479,6.96c0.662,1.773,2.972,2.973,5.04,4.08c6.428,3.439,13.741,5.289,18.96,9.119
			C119.84,107.52,119.92,107.52,120,107.52z"/>
		<path fill-rule="evenodd" clip-rule="evenodd" d="M13.44,50.4c1.28,0,2.56,0,3.84,0c0,0.96,0,1.92,0,2.88c-1.28,0-2.56,0-3.84,0
			C13.44,52.32,13.44,51.36,13.44,50.4z"/>
		<path fill-rule="evenodd" clip-rule="evenodd" d="M42.48,50.4c0,0.96,0,1.92,0,2.88c-1.2,0-2.4,0-3.6,0
			c-0.375-0.55-0.375-2.33,0-2.88C40.08,50.4,41.28,50.4,42.48,50.4z"/>
		<path fill-rule="evenodd" clip-rule="evenodd" d="M35.04,51.12c-0.002,2.424-1.733,4.833-3.84,6
			c-2.136,1.183-5.076,0.763-6.96-0.72c-1.416-1.115-2.493-2.841-2.64-5.28C25.53,50.722,31.11,50.722,35.04,51.12z"/>
		<path fill-rule="evenodd" clip-rule="evenodd" d="M18.96,59.28c0.882,0.158,1.195,0.885,1.68,1.44
			c-0.99,1.818-2.313,3.304-3.6,0.72C17.35,60.39,18.251,59.931,18.96,59.28z"/>
		<path fill-rule="evenodd" clip-rule="evenodd" d="M39.12,61.44c-0.557,0.482-1.207,0.873-1.44,1.68
			c-1.132-0.389-1.667-1.373-2.4-2.16C36.021,58.249,38.269,59.884,39.12,61.44z"/>
		<path fill-rule="evenodd" clip-rule="evenodd" d="M29.28,62.88c0,1.28,0,2.561,0,3.84c-0.882-0.078-2.125,0.205-2.64-0.239
			c0-1.2,0-2.4,0-3.601C27.131,62.509,28.789,62.509,29.28,62.88z"/>
		<g>
		</g>
	</g>
</g>
</svg>
