<?xml version="1.0" encoding="utf-8"?>
<!-- Generator: Adobe Illustrator 12.0.0, SVG Export Plug-In . SVG Version: 6.00 Build 51448)  -->
<!DOCTYPE svg PUBLIC "-//W3C//DTD SVG 1.1//EN" "http://www.w3.org/Graphics/SVG/1.1/DTD/svg11.dtd" [
	<!ENTITY ns_svg "http://www.w3.org/2000/svg">
	<!ENTITY ns_xlink "http://www.w3.org/1999/xlink">
]>
<svg  version="1.1" id="emergency_x5F_Melanie_xA0_Image_1_" xmlns="&ns_svg;" xmlns:xlink="&ns_xlink;" width="120" height="120"
	 viewBox="0 0 120 120" overflow="visible" enable-background="new 0 0 120 120" xml:space="preserve">
<g>
	<g>
		<path fill-rule="evenodd" clip-rule="evenodd" fill="#FFFFFF" d="M0.24,0C40.16,0,80.08,0,120,0c0,40,0,80,0,120c-40,0-80,0-120,0
			C0,80.24,0,40.48,0,0.72C-0.021,0.379-0.04,0.041,0.24,0z M78.24,4.56c-0.717,5.763,0.237,13.197-0.48,18.96
			c-3.028,0-6.351,0-9.6,0c-3.278,0-6.71-0.383-9.36,0.48c-0.852,2.259-0.48,5.554-0.48,8.64c0,1.507,0,3.099,0,4.56
			c0,1.551-0.363,3.25,0.48,4.32c1.144,0.851,2.866,0.48,4.32,0.48c5.024,0,10.131,0,14.88,0c0,4.719,0,10.322,0,14.88
			c0,1.396-0.53,3.458,0.72,4.32c0.039,0.871,1.296,0.462,1.681,0.479c5.173,0.248,11.148,0.004,15.6-0.239
			c0.861-2.676,0.48-6.147,0.48-9.601c0-3.382-0.196-6.94,0.239-9.84c3.107,0,6.516,0,9.84,0c3.279,0,6.71,0.383,9.36-0.48
			c0.557-5.284,0.083-11.597,0.24-17.28c-2.461-1.218-6.11-0.72-9.601-0.72c-3.546,0-7.132,0.195-10.079-0.24
			c0-3.169,0-6.688,0-10.08c0-3.44,0.496-6.898-0.721-9.36c-5.52,0-11.04,0-16.56,0C78.711,3.911,78.729,4.489,78.24,4.56z
			 M19.44,12.72c-1.617,1.71-3.402,3.295-4.8,4.8c-4.545,4.892-10.723,7.642-9.12,18.24c0.266,1.76,1.619,4.361,2.64,6.72
			c8.683,20.054,20.474,36.061,36.24,49.2c6.897,5.748,14.664,10.734,22.8,15.12c4.739,2.555,10.301,5.779,15.6,6.72
			c2.764,0.491,7.328,1.189,9.601,0.721c1.847-0.382,3.962-2.338,5.52-3.84c3.594-3.467,6.162-6.162,9.6-9.601
			c1.525-1.524,3.683-3.372,4.08-5.52c0.276-1.486-0.207-4.731-0.479-5.521c-0.727-2.099-3.371-4.33-5.28-6.24
			c-4.091-4.091-7.401-7.488-11.52-11.52c-1.449-1.419-4.316-4.181-7.44-4.08c-3.516,0.114-6.039,3.399-7.68,5.04
			c-1.98,1.979-4.255,5.364-7.44,5.521c-2.16,0.105-3.641-1.186-5.279-2.16c-3.476-2.067-6.344-4.045-8.88-6.24
			c-1.357-1.175-2.945-2.078-4.32-3.36c-2.317-2.161-4.555-5.167-6.72-8.4c-1.396-2.085-5.305-7.443-5.04-10.32
			c0.221-2.401,4.302-5.501,5.52-6.72c1.708-1.708,4.833-3.731,5.28-7.2c0.478-3.712-1.711-5.988-3.84-8.16
			c-4.226-4.311-7.663-8.143-11.76-12.24c-2.917-2.917-5.986-6.458-11.52-5.28C22.295,9.018,21.308,10.744,19.44,12.72z"/>
		<path fill-rule="evenodd" clip-rule="evenodd" d="M79.2,3.84c5.52,0,11.04,0,16.56,0c1.217,2.462,0.721,5.92,0.721,9.36
			c0,3.391,0,6.91,0,10.08c2.947,0.435,6.533,0.24,10.079,0.24c3.49,0,7.14-0.498,9.601,0.72c-0.157,5.683,0.316,11.996-0.24,17.28
			c-2.65,0.863-6.081,0.48-9.36,0.48c-3.324,0-6.732,0-9.84,0c-0.436,2.899-0.239,6.458-0.239,9.84c0,3.454,0.381,6.924-0.48,9.601
			c-4.451,0.243-10.427,0.487-15.6,0.239c-0.385-0.018-1.642,0.392-1.681-0.479C77.47,60.337,78,58.276,78,56.88
			c0-4.558,0-10.161,0-14.88c-4.749,0-9.855,0-14.88,0c-1.454,0-3.177,0.371-4.32-0.48c-0.843-1.069-0.48-2.769-0.48-4.32
			c0-1.461,0-3.053,0-4.56c0-3.086-0.372-6.381,0.48-8.64c2.65-0.863,6.082-0.48,9.36-0.48c3.249,0,6.571,0,9.6,0
			c0.718-5.763-0.236-13.197,0.48-18.96C78.729,4.489,78.711,3.911,79.2,3.84z"/>
		<path fill-rule="evenodd" clip-rule="evenodd" d="M25.2,8.4c5.534-1.178,8.603,2.363,11.52,5.28
			c4.097,4.097,7.534,7.929,11.76,12.24c2.128,2.172,4.318,4.448,3.84,8.16c-0.446,3.468-3.572,5.492-5.28,7.2
			c-1.218,1.219-5.299,4.319-5.52,6.72c-0.265,2.876,3.644,8.234,5.04,10.32c2.165,3.233,4.403,6.239,6.72,8.4
			c1.375,1.282,2.963,2.186,4.32,3.36c2.537,2.195,5.405,4.173,8.88,6.24c1.639,0.975,3.119,2.266,5.279,2.16
			c3.186-0.156,5.46-3.541,7.44-5.521c1.641-1.641,4.164-4.926,7.68-5.04c3.124-0.101,5.991,2.661,7.44,4.08
			c4.118,4.031,7.429,7.429,11.52,11.52c1.909,1.91,4.554,4.142,5.28,6.24c0.272,0.789,0.756,4.034,0.479,5.521
			c-0.397,2.147-2.555,3.995-4.08,5.52c-3.438,3.438-6.006,6.134-9.6,9.601c-1.558,1.502-3.673,3.458-5.52,3.84
			c-2.272,0.469-6.837-0.229-9.601-0.721c-5.299-0.94-10.86-4.165-15.6-6.72c-8.137-4.386-15.903-9.372-22.8-15.12
			C28.634,78.541,16.843,62.534,8.16,42.48c-1.021-2.359-2.374-4.96-2.64-6.72c-1.603-10.598,4.575-13.348,9.12-18.24
			c1.398-1.504,3.183-3.09,4.8-4.8C21.308,10.744,22.295,9.018,25.2,8.4z M42.48,36.48c0.903-0.903,2.893-2.573,2.88-3.6
			c-0.011-0.902-2.83-3.533-4.08-4.8c-2.962-3.002-6.2-6.043-9.12-9.12c-1.688-1.778-3.985-5.247-6-3.6
			c-2.594,2.655-4.538,4.544-7.2,7.44c-1.63,1.773-6.472,5.551-6.96,7.92c-0.423,2.057,0.82,4.889,1.92,7.68
			c0.957,2.426,1.952,4.875,2.88,6.72c14.191,28.226,35.056,48.348,64.561,60.96c2.668,1.141,5.454,2.28,7.92,1.92
			c2.25-0.328,3.222-2.035,4.8-3.6c2.802-2.779,4.6-4.63,7.439-7.44c1.299-1.284,3.578-2.853,3.601-3.84
			c0.033-1.469-3.112-3.592-4.32-4.8c-1.838-1.839-3.272-3.273-4.56-4.561c-3.363-3.363-5.735-6.474-9.36-8.88
			c-2.335,1.985-4.32,4.32-6.479,6.48c-2.184,2.184-4.31,4.539-6.96,6.239C54.403,79.356,39.9,66.579,32.88,46.32
			C35.739,42.885,39.148,39.812,42.48,36.48z"/>
		<path fill-rule="evenodd" clip-rule="evenodd" fill="#FFFFFF" d="M32.88,46.32C39.9,66.579,54.403,79.356,73.44,87.6
			c2.65-1.7,4.776-4.056,6.96-6.239c2.159-2.16,4.145-4.495,6.479-6.48c3.625,2.406,5.997,5.517,9.36,8.88
			c1.287,1.287,2.722,2.722,4.56,4.561c1.208,1.208,4.354,3.331,4.32,4.8c-0.022,0.987-2.302,2.556-3.601,3.84
			c-2.84,2.811-4.638,4.661-7.439,7.44c-1.578,1.564-2.55,3.271-4.8,3.6c-2.466,0.36-5.252-0.779-7.92-1.92
			C51.855,93.468,30.991,73.346,16.8,45.12c-0.928-1.846-1.923-4.294-2.88-6.72c-1.1-2.791-2.343-5.623-1.92-7.68
			c0.488-2.369,5.33-6.147,6.96-7.92c2.662-2.896,4.606-4.785,7.2-7.44c2.015-1.647,4.313,1.822,6,3.6
			c2.92,3.077,6.157,6.118,9.12,9.12c1.25,1.267,4.069,3.898,4.08,4.8c0.013,1.027-1.977,2.697-2.88,3.6
			C39.148,39.812,35.739,42.885,32.88,46.32z"/>
	</g>
</g>
</svg>
