<?xml version="1.0" encoding="utf-8"?>
<!-- Generator: Adobe Illustrator 12.0.0, SVG Export Plug-In . SVG Version: 6.00 Build 51448)  -->
<!DOCTYPE svg PUBLIC "-//W3C//DTD SVG 1.1//EN" "http://www.w3.org/Graphics/SVG/1.1/DTD/svg11.dtd" [
	<!ENTITY ns_svg "http://www.w3.org/2000/svg">
	<!ENTITY ns_xlink "http://www.w3.org/1999/xlink">
]>
<svg  version="1.1" id="emergency_x5F_Hugh_xA0_Image_26_" xmlns="&ns_svg;" xmlns:xlink="&ns_xlink;" width="120" height="120"
	 viewBox="0 0 120 120" overflow="visible" enable-background="new 0 0 120 120" xml:space="preserve">
<g>
	<g>
		<path fill-rule="evenodd" clip-rule="evenodd" fill="#FFFFFF" d="M0.24,0C40.16,0,80.08,0,120,0c0,40,0,80,0,120c-40,0-80,0-120,0
			C0,80.24,0,40.48,0,0.72C-0.021,0.379-0.04,0.041,0.24,0z M32.64,6.72c-6.559,3.413-11.922,7.746-16.32,12.48
			C7.176,29.042,0.142,42.406,0.24,60.72c0.098,18.165,7.667,31.582,16.8,40.799c9.522,9.611,22.121,16.959,39.36,18.24
			c9.384,0.697,18.564-1.426,26.16-4.56c7.479-3.086,13.652-7.43,18.721-12.24c10.188-9.67,18.479-23.939,18.479-43.2
			c0-19.421-8.788-33.16-18.72-42.96c-9.801-9.67-25.696-17.876-45.6-16.32C46.877,1.149,38.931,3.447,32.64,6.72z"/>
		<path fill-rule="evenodd" clip-rule="evenodd" d="M55.44,0.48c19.904-1.557,35.799,6.649,45.6,16.32
			c9.932,9.8,18.72,23.539,18.72,42.96c0,19.261-8.292,33.53-18.479,43.2c-5.068,4.811-11.242,9.154-18.721,12.24
			c-7.596,3.134-16.775,5.257-26.16,4.56c-17.239-1.281-29.838-8.629-39.36-18.24C7.907,92.302,0.338,78.885,0.24,60.72
			C0.142,42.406,7.176,29.042,16.32,19.2c4.398-4.734,9.761-9.067,16.32-12.48C38.931,3.447,46.877,1.149,55.44,0.48z M34.8,13.2
			c-6.084,3.142-10.997,7.279-14.88,11.76C11.881,34.237,5.731,46.823,7.2,64.8c0.646,7.911,2.796,14.483,6,20.4
			c8.618,15.916,27.353,29.871,51.12,27.6c15.317-1.464,26.515-7.942,35.04-17.52c8.293-9.317,14.728-21.701,13.439-39.12
			c-1.179-15.94-8.217-27.463-17.28-35.76C86.796,12.413,72.775,5.936,55.68,7.2C47.557,7.801,40.865,10.068,34.8,13.2z"/>
		<path fill-rule="evenodd" clip-rule="evenodd" fill="#FFFFFF" d="M55.68,7.2c17.095-1.264,31.116,5.213,39.839,13.2
			c9.063,8.297,16.102,19.82,17.28,35.76c1.288,17.419-5.146,29.803-13.439,39.12c-8.525,9.577-19.723,16.056-35.04,17.52
			c-23.767,2.271-42.502-11.684-51.12-27.6c-3.204-5.917-5.354-12.489-6-20.4c-1.469-17.977,4.681-30.563,12.72-39.84
			c3.883-4.48,8.795-8.618,14.88-11.76C40.865,10.068,47.557,7.801,55.68,7.2z M96.96,41.52c-9.077-8.582-25.609-9.773-36.96-9.6
			c-5.882,0.09-12.999,0.438-19.44,1.92c-6.258,1.441-12.748,4.087-17.28,7.92c-3.625,3.066-6.669,7.952-6.48,14.16
			c7.637-0.447,17.128-1.109,24.72-2.4c0.382-0.928-0.273-2.87,0.24-4.32c1.626-4.593,12.705-5.133,17.28-5.28
			c3.034-0.098,6.785-0.093,9.36,0.24c3.322,0.43,6.867,1.302,8.399,3.12c1.498,1.777,0.794,4.071,1.2,6.24
			c8.01,0.953,17.106,2.09,24.72,2.64C103.345,49.87,100.463,44.832,96.96,41.52z M17.28,57.84c-1.754,7.173,5.521,6.732,10.08,6.24
			c3.022-0.326,7.354-1.059,8.88-1.44c3.084-0.771,5.746-3.342,5.52-6.72C33.143,56.103,25.699,57.459,17.28,57.84z M78,55.92
			c-0.251,3.577,2.608,5.992,5.52,6.72c2.918,0.729,9.694,1.726,12.48,1.681c1.438-0.023,3.476,0.059,4.56-0.48
			c1.912-0.949,2.952-3.94,1.921-6C94.062,57.459,86.617,56.103,78,55.92z M58.08,60.96c1.28,0,2.56,0,3.84,0c0-1.52,0-3.04,0-4.56
			c-1.28,0-2.56,0-3.84,0C58.08,57.92,58.08,59.44,58.08,60.96z M45.84,60.48c-0.538,0.982-1.925,1.115-2.16,2.4
			c1.411,0.509,2.013,1.826,3.36,2.4c0.702-0.897,1.998-1.202,2.4-2.4C47.987,62.333,47.536,60.784,45.84,60.48z M73.68,60.48
			c-1.069,0.77-1.855,1.824-3.12,2.4c0.609,1.071,1.598,1.763,2.641,2.4c0.949-1.051,2.365-1.635,3.12-2.88
			C75.443,61.757,74.814,60.866,73.68,60.48z M72.72,71.28c-0.295-1.586-0.339-3.492-0.96-4.561c-0.908-1.563-3.734-2.505-6-2.64
			c-4.139-0.245-11.669-0.457-14.16,0.24c-3.728,1.042-3.913,4.404-4.56,8.16c-0.892,5.175-1.697,8.707-2.4,13.92
			c-0.438,0.522-1.963-0.043-2.4,0.479c0,1.04,0,2.08,0,3.12c11.84,0,23.68,0,35.52,0c0-1.04,0-2.08,0-3.12
			c-0.431-0.609-2.318,0.239-2.399-0.72C74.485,81.166,73.591,75.952,72.72,71.28z M38.64,75.6c1.84,0,3.68,0,5.52,0
			c0.381-0.678,0.381-2.682,0-3.359c-1.84,0-3.68,0-5.52,0C38.64,73.36,38.64,74.48,38.64,75.6z M75.84,72.24
			c-0.381,0.678-0.381,2.682,0,3.359c1.84,0,3.68,0,5.521,0c0-1.119,0-2.239,0-3.359C79.52,72.24,77.68,72.24,75.84,72.24z"/>
		<path fill-rule="evenodd" clip-rule="evenodd" d="M102.72,56.16c-7.613-0.55-16.71-1.688-24.72-2.64
			c-0.406-2.169,0.298-4.463-1.2-6.24c-1.532-1.817-5.077-2.69-8.399-3.12c-2.575-0.333-6.326-0.338-9.36-0.24
			c-4.576,0.147-15.654,0.688-17.28,5.28c-0.513,1.45,0.142,3.392-0.24,4.32c-7.592,1.291-17.083,1.953-24.72,2.4
			c-0.189-6.208,2.854-11.094,6.48-14.16c4.532-3.833,11.022-6.479,17.28-7.92c6.441-1.482,13.558-1.83,19.44-1.92
			c11.351-0.173,27.883,1.018,36.96,9.6C100.463,44.832,103.345,49.87,102.72,56.16z"/>
		<path fill-rule="evenodd" clip-rule="evenodd" d="M41.76,55.92c0.226,3.378-2.435,5.949-5.52,6.72
			c-1.527,0.382-5.858,1.114-8.88,1.44c-4.559,0.492-11.834,0.933-10.08-6.24C25.699,57.459,33.143,56.103,41.76,55.92z"/>
		<path fill-rule="evenodd" clip-rule="evenodd" d="M102.48,57.84c1.031,2.06-0.009,5.051-1.921,6
			c-1.084,0.539-3.122,0.457-4.56,0.48c-2.786,0.045-9.563-0.951-12.48-1.681c-2.911-0.728-5.771-3.143-5.52-6.72
			C86.617,56.103,94.062,57.459,102.48,57.84z"/>
		<path fill-rule="evenodd" clip-rule="evenodd" d="M58.08,56.4c1.28,0,2.56,0,3.84,0c0,1.52,0,3.04,0,4.56c-1.28,0-2.56,0-3.84,0
			C58.08,59.44,58.08,57.92,58.08,56.4z"/>
		<path fill-rule="evenodd" clip-rule="evenodd" d="M49.44,62.88c-0.402,1.198-1.698,1.503-2.4,2.4
			c-1.347-0.574-1.949-1.892-3.36-2.4c0.234-1.285,1.622-1.418,2.16-2.4C47.536,60.784,47.987,62.333,49.44,62.88z"/>
		<path fill-rule="evenodd" clip-rule="evenodd" d="M76.32,62.4c-0.755,1.245-2.171,1.829-3.12,2.88
			c-1.043-0.638-2.031-1.329-2.641-2.4c1.265-0.576,2.051-1.63,3.12-2.4C74.814,60.866,75.443,61.757,76.32,62.4z"/>
		<path fill-rule="evenodd" clip-rule="evenodd" d="M75.36,86.16c0.081,0.959,1.969,0.11,2.399,0.72c0,1.04,0,2.08,0,3.12
			c-11.84,0-23.68,0-35.52,0c0-1.04,0-2.08,0-3.12c0.437-0.522,1.962,0.043,2.4-0.479c0.703-5.213,1.508-8.745,2.4-13.92
			c0.647-3.756,0.832-7.118,4.56-8.16c2.49-0.697,10.021-0.485,14.16-0.24c2.266,0.135,5.092,1.076,6,2.64
			c0.621,1.068,0.665,2.975,0.96,4.561C73.591,75.952,74.485,81.166,75.36,86.16z M62.16,66.48c-4.467-0.3-10.317,0.139-11.76,2.88
			c3.857,3.542,15.583,3.542,19.44,0C68.993,67.197,65.298,66.69,62.16,66.48z M53.52,73.44c-0.769,1.847-1.001,4.334-1.44,7.68
			c-0.283,2.155-1.204,5.865,0.48,6.24c2.235,0.497,1.951-4.68,2.16-6.24c0.405-3.017,0.987-5.243,0.72-7.44
			C55.091,73.309,54.211,73.469,53.52,73.44z"/>
		<path fill-rule="evenodd" clip-rule="evenodd" fill="#FFFFFF" d="M69.84,69.36c-3.857,3.542-15.583,3.542-19.44,0
			c1.443-2.741,7.293-3.18,11.76-2.88C65.298,66.69,68.993,67.197,69.84,69.36z"/>
		<path fill-rule="evenodd" clip-rule="evenodd" d="M38.64,72.24c1.84,0,3.68,0,5.52,0c0.381,0.678,0.381,2.682,0,3.359
			c-1.84,0-3.68,0-5.52,0C38.64,74.48,38.64,73.36,38.64,72.24z"/>
		<path fill-rule="evenodd" clip-rule="evenodd" d="M81.36,72.24c0,1.12,0,2.24,0,3.359c-1.841,0-3.681,0-5.521,0
			c-0.381-0.678-0.381-2.682,0-3.359C77.68,72.24,79.52,72.24,81.36,72.24z"/>
		<path fill-rule="evenodd" clip-rule="evenodd" fill="#FFFFFF" d="M55.44,73.68c0.267,2.197-0.315,4.424-0.72,7.44
			c-0.209,1.561,0.075,6.737-2.16,6.24c-1.684-0.375-0.763-4.085-0.48-6.24c0.439-3.346,0.671-5.833,1.44-7.68
			C54.211,73.469,55.091,73.309,55.44,73.68z"/>
	</g>
</g>
</svg>
