<?xml version="1.0" encoding="utf-8"?>
<!-- Generator: Adobe Illustrator 16.2.1, SVG Export Plug-In . SVG Version: 6.00 Build 0)  -->
<!DOCTYPE svg PUBLIC "-//W3C//DTD SVG 1.1//EN" "http://www.w3.org/Graphics/SVG/1.1/DTD/svg11.dtd">
<svg version="1.1" id="Layer_1" xmlns="http://www.w3.org/2000/svg" xmlns:xlink="http://www.w3.org/1999/xlink" x="0px" y="0px"
	 width="100px" height="100px" viewBox="0 0 100 100" enable-background="new 0 0 100 100" xml:space="preserve">
<g>
	<ellipse cx="40.991" cy="15.187" rx="38.751" ry="9.996"/>
	<path d="M40.872,48.739c4.664,0,7.864-0.078,8.702-0.197c0.28-3.234,1.956-9.222,7.306-13.494c2.795-2.036,7.386-5.589,16.009-4.71
		c0.851,0.214,3.792,0.439,6.786,2.076c0-0.719,0.067-11.977,0.067-11.977s-0.119,10.768-38.751,10.768
		c-38.631,0-38.75-10.768-38.75-10.768v14.404C2.241,34.841,2.241,48.739,40.872,48.739z"/>
	<path d="M40.872,72.285c14.442,0,16.034-0.629,21.038-2.226c-4.032-2.036-6.388-4.232-9.182-7.825
		c-1.518-2.515-2.396-4.352-3.194-8.902c-1.637,0.199-3.9,0.225-8.543,0.225c-38.631,0-38.75-12.68-38.75-12.68v16.606
		C2.241,57.482,2.241,72.285,40.872,72.285z"/>
	<path d="M68.537,71.616c-0.525,0.184-4.069,5.141-27.546,5.141c-38.631,0-38.804-13.364-38.804-13.364l0.053,17.347
		c0,0,0,14.965,38.631,14.963c38.631,0,38.87-14.775,38.87-14.775s0.013-10.838,0.013-11.506
		C75.763,71.337,72.21,71.896,68.537,71.616z"/>
	<path d="M98.034,73.404l-7.536-7.878l-7.349-3.202c2.661-3.057,4.078-6.808,4.163-10.658c0.09-4.229-1.448-8.489-4.636-11.821
		c-3.12-3.255-7.309-4.905-11.609-4.999c-8.893-0.193-16.62,7.204-16.812,16.1c-0.197,8.968,7.049,16.688,16.023,16.883
		c3.853,0.084,7.732-1.161,10.904-3.689l2.875,7.55l7.543,7.806c0.725,0.607,1.683,0.925,2.645,0.946
		c2.374,0.051,4.567-1.904,4.62-4.35C98.888,75.128,98.61,74.232,98.034,73.404z M77.812,58.646
		c-2.042,1.96-4.659,2.864-7.327,2.806c-5.409-0.117-9.98-4.814-9.857-10.37c0.117-5.415,4.817-9.982,10.3-9.864
		c5.635,0.125,10.132,4.819,10.01,10.307C80.883,54.119,79.787,56.688,77.812,58.646z"/>
</g>
</svg>
