<?xml version="1.0" encoding="UTF-8" standalone="no"?>
<!-- Generator: Adobe Illustrator 16.2.1, SVG Export Plug-In . SVG Version: 6.00 Build 0)  -->

<svg
   xmlns:sketch="http://www.bohemiancoding.com/sketch/ns"
   xmlns:dc="http://purl.org/dc/elements/1.1/"
   xmlns:cc="http://creativecommons.org/ns#"
   xmlns:rdf="http://www.w3.org/1999/02/22-rdf-syntax-ns#"
   xmlns:svg="http://www.w3.org/2000/svg"
   xmlns="http://www.w3.org/2000/svg"
   xmlns:sodipodi="http://sodipodi.sourceforge.net/DTD/sodipodi-0.dtd"
   xmlns:inkscape="http://www.inkscape.org/namespaces/inkscape"
   version="1.1"
   id="Layer_1"
   x="0px"
   y="0px"
   width="100px"
   height="100px"
   viewBox="0 0 100 100"
   enable-background="new 0 0 100 100"
   xml:space="preserve"
   inkscape:version="0.48.5 r10040"
   sodipodi:docname="country-statistics.svg"><metadata
     id="metadata23"><rdf:RDF><cc:Work
         rdf:about=""><dc:format>image/svg+xml</dc:format><dc:type
           rdf:resource="http://purl.org/dc/dcmitype/StillImage" /></cc:Work></rdf:RDF></metadata><defs
     id="defs21" /><sodipodi:namedview
     pagecolor="#ffffff"
     bordercolor="#666666"
     borderopacity="1"
     objecttolerance="10"
     gridtolerance="10"
     guidetolerance="10"
     inkscape:pageopacity="0"
     inkscape:pageshadow="2"
     inkscape:window-width="1206"
     inkscape:window-height="1051"
     id="namedview19"
     showgrid="false"
     inkscape:zoom="5.9124071"
     inkscape:cx="63.712783"
     inkscape:cy="43.911109"
     inkscape:window-x="350"
     inkscape:window-y="41"
     inkscape:window-maximized="0"
     inkscape:current-layer="g3" /><g
     id="g3"><path
       d="M 96.203405,19.528 H 33.307508 c -1.385706,-1.217 -2.459785,-5.61 -3.924437,-5.61 H 12.260147 c -1.464652,0 -2.5117228,4.393 -3.9130105,5.61 H 4.0186224 C 1.9390242,19.528 0.25,21.152 0.25,23.155 v 61.867 c 0,2.002 1.6890242,3.625 3.7686224,3.625 H 96.203405 c 2.084792,0 3.767584,-1.623 3.767584,-3.625 V 23.155 c 0,-2.004 -1.682792,-3.627 -3.767584,-3.627 z M 91.596503,83.41 H 8.171586 c -2.1720477,0 -3.9317077,-1.692 -3.9317077,-3.786 V 29.343 c 0,-2.09 1.7586212,-3.783 3.9317077,-3.783 h 83.424917 c 2.171009,0 3.931708,1.693 3.931708,3.783 v 50.281 h 0.0021 c 0,2.094 -1.761737,3.786 -3.933785,3.786 z"
       id="path5"
       inkscape:connector-curvature="0" /><rect
       x="70.745468"
       y="53.310791"
       width="6.8597312"
       height="20.585155"
       id="rect11" /><rect
       x="81.038048"
       y="46.44907"
       width="6.8617187"
       height="27.446875"
       id="rect13" /><rect
       x="60.450901"
       y="60.173504"
       width="6.8627129"
       height="13.722445"
       id="rect15" /><path
       style="fill:#000000;fill-rule:evenodd;stroke:none"
       d="m 32.163872,32.221713 c -12.159633,0 -22.018782,9.705962 -22.018782,21.679402 0,11.974021 9.859149,21.679982 22.018782,21.679982 12.159642,0 22.018193,-9.705961 22.018193,-21.679982 0,-11.974019 -9.858551,-21.679402 -22.018193,-21.679402 l 0,0 z m 9.313168,28.346131 c 0,0.340734 -0.121851,0.871929 -0.270325,1.179463 l -1.607803,3.339191 c -0.149078,0.307533 -0.476778,0.749031 -0.729965,0.983177 l -5.2345,4.81279 c -0.251995,0.231815 -0.175704,0.423442 0.169758,0.423442 l 0.599822,0 c 0.345462,0 0.628813,0.244047 0.628813,0.541675 0,0.299969 -0.283351,0.544598 -0.628813,0.544598 l -2.573177,0 c -0.346067,0 -0.628812,-0.279002 -0.628812,-0.620317 l 0,-6.591009 c 0,-0.342481 0.282745,-0.619727 0.628812,-0.619727 l 0.71516,0 c 0.346636,0 0.6294,-0.278994 0.6294,-0.619727 l 0,-0.704184 c 0,-0.341317 -0.283352,-0.62031 -0.6294,-0.62031 l -0.71516,0 c -0.346067,0 -0.628812,-0.277829 -0.628812,-0.618562 l 0,-3.861651 c 0,-0.340731 -0.283353,-0.619143 -0.629987,-0.619143 l -1.06418,0 c -0.344856,0 -0.860094,-0.160764 -1.141662,-0.358212 L 24.98084,54.80158 c -0.282753,-0.19629 -0.657788,-0.5976 -0.833474,-0.891739 L 22.56323,51.262028 c -0.175688,-0.293561 -0.602777,-0.534115 -0.948827,-0.534115 l -0.755984,0 c -0.346049,0 -0.751843,-0.251612 -0.902095,-0.557982 l -1.834948,-3.742836 c -0.147885,-0.306351 -0.272698,-0.835806 -0.272698,-1.177712 l 0,-2.133517 c 0,-0.340733 -0.270332,-0.53818 -0.601,-0.438001 l -0.738241,0.223661 c 3.194302,-4.396334 8.247213,-7.391872 14.020028,-7.87298 l 0,2.573272 c 0,0.340136 0.231278,0.779312 0.514043,0.974429 l 1.178931,0.816024 c 0.283351,0.195118 0.797396,0.355871 1.144032,0.355871 l 0.932255,0 c 0.346067,0 0.628814,0.224819 0.628814,0.500331 0,0.274323 -0.195207,0.701267 -0.433,0.94939 l -1.343385,1.394384 c -0.238986,0.246371 -0.149667,0.449076 0.195792,0.450233 l 0.89677,0.0023 c 0.344876,5.63e-4 0.627622,0.279579 0.627622,0.62089 l -0.0018,2.225545 c -0.0011,0.340156 0.281553,0.619153 0.627619,0.619153 l 1.011522,0 c 0.346047,0 0.629399,0.211432 0.629399,0.470614 0,0.258621 -0.283352,0.470033 -0.629399,0.470033 l -3.101425,0 c -0.34546,0 -0.853596,0.169499 -1.128068,0.375692 l -1.271204,0.95405 c -0.275076,0.206192 -0.500449,0.654095 -0.49986,0.994826 l 5.72e-4,3.701483 c 0,0.340732 -0.28216,0.619713 -0.628795,0.619713 l -0.175684,0 c -0.345462,0 -0.628814,-0.278981 -0.628814,-0.619713 l 0,-2.130607 c 0,-0.340733 -0.282159,-0.619154 -0.628798,-0.619154 l -1.696529,0 c -0.344867,0 -0.628803,0.278421 -0.631171,0.619154 l -0.0089,1.719976 c -0.0024,0.340731 0.218278,0.793296 0.48861,1.007636 l 2.504577,1.978001 c 0.268545,0.213762 0.773123,0.3885 1.118582,0.389078 l 4.182759,0.0023 c 0.345462,5.62e-4 0.880221,0.129879 1.186637,0.287725 l 5.329157,2.7416 c 0.306417,0.157845 0.557218,0.565561 0.557218,0.906878 l 0,0.188131 -5.72e-4,0 z M 39.860963,42.00863 c -0.279206,0.202109 -0.790296,0.367524 -1.136345,0.367524 l -0.27093,0 c -0.345461,0 -0.628796,-0.278981 -0.628796,-0.619732 l 0,-2.013518 c 0,-0.340733 -0.282157,-0.619155 -0.628812,-0.619155 l -0.910972,0 c -0.346047,0 -0.628794,-0.278981 -0.628794,-0.619136 l 0,-3.228521 c 3.010929,0.546905 5.781094,1.778223 8.127724,3.534893 -0.08105,0.265015 -3.923075,3.197645 -3.923075,3.197645 l 0,0 z"
       sketch:type="MSShapeGroup"
       id="path12"
       inkscape:connector-curvature="0" /></g></svg>