<?xml version="1.0" encoding="UTF-8" standalone="no"?>
<!-- Created with Inkscape (http://www.inkscape.org/) -->

<svg
   xmlns:dc="http://purl.org/dc/elements/1.1/"
   xmlns:cc="http://creativecommons.org/ns#"
   xmlns:rdf="http://www.w3.org/1999/02/22-rdf-syntax-ns#"
   xmlns:svg="http://www.w3.org/2000/svg"
   xmlns="http://www.w3.org/2000/svg"
   xmlns:sodipodi="http://sodipodi.sourceforge.net/DTD/sodipodi-0.dtd"
   xmlns:inkscape="http://www.inkscape.org/namespaces/inkscape"
   width="100"
   height="100"
   id="svg2"
   version="1.1"
   inkscape:version="0.48.5 r10040"
   sodipodi:docname="measurement.svg">
  <defs
     id="defs4" />
  <sodipodi:namedview
     id="base"
     pagecolor="#ffffff"
     bordercolor="#666666"
     borderopacity="1.0"
     inkscape:pageopacity="0.0"
     inkscape:pageshadow="2"
     inkscape:zoom="1.4576849"
     inkscape:cx="74.088136"
     inkscape:cy="53.293582"
     inkscape:document-units="px"
     inkscape:current-layer="layer1"
     showgrid="false"
     inkscape:window-width="1567"
     inkscape:window-height="1003"
     inkscape:window-x="125"
     inkscape:window-y="43"
     inkscape:window-maximized="0" />
  <metadata
     id="metadata7">
    <rdf:RDF>
      <cc:Work
         rdf:about="">
        <dc:format>image/svg+xml</dc:format>
        <dc:type
           rdf:resource="http://purl.org/dc/dcmitype/StillImage" />
        <dc:title />
      </cc:Work>
    </rdf:RDF>
  </metadata>
  <g
     inkscape:label="Layer 1"
     inkscape:groupmode="layer"
     id="layer1"
     transform="translate(0,-952.36218)">
    <path
       inkscape:connector-curvature="0"
       d="m 9.1914639,954.18046 c 0.0789,-0.056 0.13945,-0.084 0.13945,-0.084 0,0 2.4486001,-1.0367 3.1651001,-1.2183 0.57247,-0.1486 1.19816,-0.078 1.79356,0.1192 0.0394,0.011 0.0762,0.024 0.11468,0.038 0.0211,0.01 0.0477,0.015 0.0661,0.024 0.007,0 0.0147,0.01 0.0211,0.01 1.42567,0.5257 2.44126,1.8927 2.44126,3.4973 0,1.7458 -1.20091,3.2063 -2.82199,3.61 -0.72568,0.1945 -1.51742,0.1798 -2.27704,-0.1064 0,0 -1.8687901,-0.789 -2.3284201,-0.9248 -0.11467,-0.034 -0.211,-0.074 -0.29265,-0.1192 -3.78253,0.8697 -2.93851,2.2522 -2.93851,6.3008 l 0,11.8733 c 0,2.356 0.95321,6.4853 2.49906,8.0293 l 2.1403501,2.1422 0.0128,-0.015 c 4.96141,4.0165 5.7825,6.4238 12.66775,6.4238 6.9403,0 7.80909,-2.4468 12.79161,-6.5284 l 0.002,0.01 2.02659,-2.0293 c 1.54402,-1.544 2.49814,-5.6734 2.49814,-8.0293 l 0,-11.8733 c 0,-4.0486 0.84402,-5.4312 -2.93942,-6.3009 -0.0807,0.045 -0.17615,0.085 -0.29266,0.1193 -0.45963,0.1358 -2.32933,0.9248 -2.32933,0.9248 -0.75871,0.2862 -1.55045,0.3009 -2.27796,0.1064 -1.62017,-0.4037 -2.82107,-1.8633 -2.82107,-3.6101 0,-1.6045 1.0165,-2.9706 2.4385,-3.4972 0.008,0 0.0174,-0.01 0.0238,-0.01 0.022,-0.01 0.0468,-0.016 0.0661,-0.024 0.0376,-0.014 0.0771,-0.027 0.11376,-0.038 0.59908,-0.1972 1.22293,-0.2679 1.79723,-0.1193 0.71376,0.1817 3.16144,1.2184 3.16144,1.2184 0,0 0.0615,0.028 0.13945,0.084 6.41919,0.9385 7.67881,4.466 7.67881,11.143 l 0,11.8733 c 0,3.5247 -1.37429,8.733 -3.61464,11.11 l -15.22644,20.73204 c -0.47064,0.5201 -0.78073,1.1871 -0.85137,1.921 l 0,16.754 c 0,4.7101 3.82014,8.5302 8.52743,8.5302 4.71096,0 8.52835,-3.8201 8.52835,-8.5302 l 0,-5.5045 c 0,-7.3375 5.94765,-13.2833 13.28519,-13.2833 0.96079,1.2598 1.58673,4.7881 0.003,4.7531 -4.71004,0 -8.52743,3.8174 -8.52743,8.5284 l 0,5.5045 c 0,7.3384 -5.94765,13.287 -13.28702,13.287 -7.33846,0 -13.28427,-5.9486 -13.28427,-13.287 l 0,-16.4375 c 0,-0.8605 -0.32935,-1.6458 -0.86604,-2.2367 L 5.1304939,988.30876 c -2.24126,-2.3761 -3.6128,-7.5844 -3.6128,-11.11 l 0,-11.8724 c -9.2e-4,-6.677 1.2587,-10.2045 7.67423,-11.1421 z"
       id="path4-5-4"
       sodipodi:nodetypes="cccccccsccccsscccscccssccccscccccccsscccssssccsssssccsccc" />
    <path
       style="fill:#000000"
       d="m 57.237315,1047.7937 c -3.40954,-2.3873 -4.24059,-7.1008 -1.8533,-10.5101 1.46533,-2.0928 3.80273,-3.1995 6.17713,-3.2008 l 2.45232,-16.898 c -1.51246,-0.5036 -2.85548,-1.5451 -3.71488,-3.0336 -0.69471,-1.2033 -0.99051,-2.5455 -0.90504,-3.8344 -2.18277,-1.2544 -1.929,-3.4771 0.7695,-2.705 0.57457,-1.0842 1.43755,-2.0351 2.57779,-2.6932 0.0927,-0.055 0.21449,-0.082 0.30771,-0.1304 l -4.28849,-18.95943 c -1.3961,0.0265 -2.74736,-0.63381 -3.49442,-1.92769 -1.09441,-1.89554 -0.46391,-4.3476 1.43172,-5.44206 1.89562,-1.09456 4.32733,-0.43487 5.42176,1.46067 0.93781,1.62464 0.59175,3.62837 -0.72052,4.85881 l 4.36975,19.2757 c 2.07463,-0.1113 4.14509,0.7208 5.52904,2.3575 l 14.270708,-6.263 c -0.21057,-1.74586 0.61457,-3.55401 2.2355,-4.48986 2.16619,-1.24942 4.94289,-0.51125 6.19388,1.65521 1.25036,2.16569 0.5113,4.94295 -1.65535,6.19385 -1.85393,1.0704 -4.12737,0.6872 -5.53508,-0.8047 l -14.180628,6.1963 c 0.48084,1.6621 2.360964,5.1707 1.603184,6.6723 l 16.37496,9.0436 c 0.2255,-0.2168 0.47793,-0.4287 0.76048,-0.592 1.8965,-1.0948 4.32743,-0.4349 5.42173,1.4609 1.09395,1.8946 0.43573,4.3267 -1.46073,5.4217 -1.89636,1.0948 -4.32728,0.4347 -5.42175,-1.4607 -0.41303,-0.7154 -0.58498,-1.5077 -0.52788,-2.2729 l -16.98723,-9.3427 c -0.2589,0.2064 -0.5236,0.381 -0.81864,0.5514 -0.85582,0.494 -3.830664,-0.9696 -4.753404,-0.8763 l -2.43766,17.124 c 0.52007,0.2099 1.03619,0.466 1.51501,0.8014 3.40955,2.3873 4.24067,7.1008 1.85316,10.5105 -3.170255,4.2664 -7.578006,3.7759 -10.51033,1.853 z"
       id="path3-7-4"
       inkscape:connector-curvature="0"
       sodipodi:nodetypes="csccscccccsccccccccccccccccccccccscc" />
    <path
       sodipodi:type="arc"
       style="fill:#000000;fill-opacity:1;stroke-width:4;stroke-miterlimit:4;stroke-dasharray:4, 8;stroke-dashoffset:0"
       id="path3105"
       sodipodi:cx="201.31189"
       sodipodi:cy="79.747536"
       sodipodi:rx="11.642134"
       sodipodi:ry="11.642134"
       d="m 212.95402,79.747536 a 11.642134,11.642134 0 1 1 -23.28426,0 11.642134,11.642134 0 1 1 23.28426,0 z"
       transform="matrix(0.83333333,0,0,0.83333333,-102.50872,944.98693)" />
    <path
       style="fill:#000000"
       d="m 83.617587,961.38395 c -4.16227,0 -7.54658,3.3844 -7.54658,7.54651 0,2.5547 1.27997,4.8019 3.22412,6.165 l -12.680434,29.09614 c -4.083241,2.7396 3.16684,5.2743 2.4801,1.3459 l 12.822174,-29.27284 c 0.5463,0.1265 1.11608,0.2126 1.70062,0.2126 4.16228,0 7.5466,-3.3843 7.5466,-7.5468 0,-4.16211 -3.38432,-7.54651 -7.5466,-7.54651 z"
       id="path3-7-1"
       inkscape:connector-curvature="0"
       sodipodi:nodetypes="ssccccsss" />
  </g>
</svg>
