<?xml version="1.0" standalone="no"?>
<!DOCTYPE svg PUBLIC "-//W3C//DTD SVG 1.1//EN" "http://www.w3.org/Graphics/SVG/1.1/DTD/svg11.dtd">
<svg width="100%" height="100%" viewBox="0 0 100 100" version="1.1" xmlns="http://www.w3.org/2000/svg" xmlns:xlink="http://www.w3.org/1999/xlink" xml:space="preserve" style="fill-rule:evenodd;clip-rule:evenodd;stroke-linejoin:round;stroke-miterlimit:1.41421;">
    <path id="filters" d="M96.8672,48.8722L54.1328,74.8672L54.1328,23.8672L96.8672,48.8722ZM36.1328,82.8672L43.1328,82.8672L43.1328,75.8672L36.1328,75.8672L36.1328,82.8672ZM36.1328,67.8672L43.1328,67.8672L43.1328,60.8672L36.1328,60.8672L36.1328,67.8672ZM36.1328,52.8672L43.1328,52.8672L43.1328,45.8672L36.1328,45.8672L36.1328,52.8672ZM36.1328,36.8672L43.1328,36.8672L43.1328,29.8672L36.1328,29.8672L36.1328,36.8672ZM22.1328,90.8672L29.1328,90.8672L29.1328,83.8672L22.1328,83.8672L22.1328,90.8672ZM22.1328,75.8672L29.1328,75.8672L29.1328,68.8672L22.1328,68.8672L22.1328,75.8672ZM22.1328,59.8672L29.1328,59.8672L29.1328,52.8672L22.1328,52.8672L22.1328,59.8672ZM22.1328,44.8672L29.1328,44.8672L29.1328,37.8672L22.1328,37.8672L22.1328,44.8672ZM22.1328,29.8672L29.1328,29.8672L29.1328,22.8672L22.1328,22.8672L22.1328,29.8672ZM36.1328,21.8672L43.1328,21.8672L43.1328,14.8672L36.1328,14.8672L36.1328,21.8672ZM22.1328,14.8672L29.1328,14.8672L29.1328,7.86719L22.1328,7.86719L22.1328,14.8672ZM9.13281,99.8672L16.1328,99.8672L16.1328,92.8672L9.13281,92.8672L9.13281,99.8672ZM9.13281,67.8672L16.1328,67.8672L16.1328,60.8672L9.13281,60.8672L9.13281,67.8672ZM9.13281,36.8672L16.1328,36.8672L16.1328,29.8672L9.13281,29.8672L9.13281,36.8672ZM9.13281,6.86719L16.1328,6.86719L16.1328,-0.132812L9.13281,-0.132812L9.13281,6.86719Z" style="fill:black;"/>
</svg>
