<?xml version="1.0" encoding="utf-8"?>
<!-- Generator: Adobe Illustrator 16.2.1, SVG Export Plug-In . SVG Version: 6.00 Build 0)  -->
<!DOCTYPE svg PUBLIC "-//W3C//DTD SVG 1.1//EN" "http://www.w3.org/Graphics/SVG/1.1/DTD/svg11.dtd">
<svg version="1.1" id="Layer_1" xmlns="http://www.w3.org/2000/svg" xmlns:xlink="http://www.w3.org/1999/xlink" x="0px" y="0px"
	 width="100px" height="100px" viewBox="0 0 100 100" enable-background="new 0 0 100 100" xml:space="preserve">
<g>
	<path fill="#010101" d="M71.625,0H45l5,8h17v25h25v59H31V43.144l-8-0.869V100h77V29.474L71.625,0z M73,27V13.38L86.163,27H73z"/>
	<rect x="39" y="48" fill="#010101" width="44" height="4"/>
	<rect x="39" y="62" fill="#010101" width="44" height="4"/>
	<rect x="39" y="76" fill="#010101" width="44" height="4"/>
	<path fill="#010101" d="M42.904,31.49c3.276-3.456,4.802-7.958,4.682-12.499C47.338,9.602,39.143,1.831,29.75,2.08
		c-9.468,0.25-17.243,8.286-16.992,17.759c0.108,4.069,1.619,8.099,4.447,11.314L9.39,34.569l-7.846,8.356
		c-0.606,0.796-0.89,1.822-0.863,2.84c0.066,2.502,2.239,4.717,4.821,4.649c1.017-0.027,1.948-0.363,2.792-1.012l7.924-8.352
		l3.006-7.915c3.359,2.652,7.387,3.955,11.453,3.848C35.14,36.865,39.555,35.025,42.904,31.49z M22.827,27.321
		c-2.169-2.054-3.259-4.769-3.334-7.586C19.342,14.023,24.064,8.963,29.93,8.809c5.717-0.151,10.774,4.572,10.928,10.36
		c0.157,5.95-4.566,10.932-10.361,11.085C27.761,30.327,24.993,29.302,22.827,27.321z"/>
</g>
</svg>
