<?xml version="1.0" encoding="UTF-8" standalone="no"?>
<svg width="100px" height="100px" viewBox="0 0 100 100" version="1.1" xmlns="http://www.w3.org/2000/svg" xmlns:xlink="http://www.w3.org/1999/xlink" xmlns:sketch="http://www.bohemiancoding.com/sketch/ns">
    <title>Tor-Hollow</title>
    <description>Created with Sketch (http://www.bohemiancoding.com/sketch)</description>
    <defs></defs>
    <g id="Page-1" stroke="none" stroke-width="1" fill="none" fill-rule="evenodd" sketch:type="MSPage">
        <g id="Tor-Hollow" sketch:type="MSArtboardGroup" fill="#000000">
            <path d="M52.2279311,97.8572786 C53.6498394,96.4435473 55.0410536,94.0708122 55.8820098,91.2140382 C57.01658,87.2620863 57.4638466,82.2039372 57.3874333,78.9972815 C57.3115738,77.1332356 56.477673,73.0961021 54.9649127,69.4422664 C54.1332267,67.4291624 52.8555201,65.4161949 52.0232804,63.9993235 C51.1168424,62.5813601 51.1103362,59.524849 50.6562866,55.9458155 C50.7321461,59.8235113 50.3482804,61.7687748 51.3311317,64.5282615 C51.9357928,66.1684472 53.979016,68.4056844 54.5842309,70.5683926 C55.4159168,73.4769375 56.3218011,76.6830581 56.2453879,78.6219061 C56.2453879,80.8594109 56.1034974,85.033312 55.1206461,89.5077865 C54.371121,93.2047999 52.6437337,96.3773088 49.7391895,98.1755452 C46.7639078,97.5714283 43.2705112,96.5401589 41.2084561,94.7971668 C37.2006379,91.3671914 33.6508837,85.6317286 33.1968342,80.6352776 C32.8191978,76.534273 36.6701751,70.4859465 42.0390346,67.4288894 C46.5762081,64.8190068 47.6315966,61.8445324 48.6144478,57.0719416 C47.2534065,61.2477538 45.9751461,64.7482998 41.5891379,66.985264 C35.2368734,70.2661813 31.9774065,75.7738307 32.279737,80.9935905 C32.7332329,87.7044832 35.4589147,92.2518488 40.8277742,95.9062304 C42.3897416,96.9844043 44.8854727,98.1047038 47.1525786,98.8441372 C38.8648109,96.9551877 38.0673131,96.0817101 35.6852474,93.3054988 C35.6852474,93.1564406 35.0800325,92.7835222 35.0800325,92.6344641 C32.0550656,89.2039427 28.1984127,83.3873989 26.8373713,78.0185755 C26.3833218,76.1545296 25.9292722,74.1414256 26.4586275,72.2768337 C28.9536854,63.4774889 34.3989581,60.0480595 39.8436771,56.3936779 C41.2047185,55.499329 42.490454,54.6038881 43.7761895,53.7095392 C46.8011565,51.3977729 47.5575366,45.2088567 48.2380573,41.7783352 C46.951768,46.0284035 45.6665862,51.2487147 43.3226937,52.9631564 C42.1128176,53.9323074 40.600611,54.6786901 39.3148755,55.498783 C33.6431317,59.3016768 28.0466937,62.8812563 25.4757763,71.9781714 C24.8711151,74.2904838 25.324611,76.0049255 25.8539664,78.2424357 C27.2903135,83.8351193 31.1475201,89.8001753 34.3236523,93.3797548 C34.3236523,93.3797548 34.8530077,93.9022774 34.8530077,93.9765334 C36.2932463,95.6153057 38.1480031,96.7738732 40.3293575,97.7040587 L40.3293575,97.7040587 C38.4314055,97.184621 36.596664,96.5241801 34.8541151,95.6909752 C26.0067928,91.4403609 20.1080242,82.3428998 19.7298342,74.8861704 C18.8981482,59.7488512 26.3091234,55.3491788 33.1154375,49.8312973 C36.9720904,46.6994382 42.2656441,45.2083107 45.3659168,39.6898832 C45.9711317,38.497418 46.7945685,36.0052554 46.1140478,33.2463146 C45.8111635,32.2771637 45.0655203,29.279964 44.5361649,28.5341273 L48.050085,29.9203195 L52.2911254,31.7413601 C52.292442,31.7392962 52.2937587,31.7372324 52.2950755,31.7351686 L52.2950755,31.7351686 L54.3649581,32.7551302 C53.0039168,37.7510352 57.163454,42.9708004 60.4907515,44.8348463 C63.818049,46.6994382 69.1869141,50.2042157 72.4389058,53.1122146 C78.1106496,58.1086656 81.1356166,65.1924767 81.1356166,72.6497521 C81.1356166,80.0316795 77.8836248,87.2650947 72.0607157,92.0371395 C68.1494578,95.2510222 61.8965558,97.7340267 56.7504458,98.7947457 C58.141036,97.1455528 59.6455023,94.2349726 60.7908672,91.1422446 C63.5882556,83.7597712 64.1181647,74.9609724 62.9835945,65.7144532 C62.907735,64.8195583 61.3949747,56.8408523 59.9586275,53.485133 C57.9165118,48.489228 54.28633,44.0147535 53.9086937,43.0461485 C53.2287267,41.4054169 51.7345104,37.9991269 51.8496951,33.3433148 C51.6253558,37.3280923 51.5653548,38.7955343 52.3211813,41.7035332 C53.1528672,44.9101944 57.3882639,49.533181 59.1274953,54.8277483 C62.4547928,64.9691624 61.6231069,78.2424357 59.2028011,88.6071641 C58.7765494,90.3240716 57.5984171,92.4035994 56.0218744,94.3036637 C56.5775779,93.3016846 57.0540059,92.2109868 57.3877102,91.0679885 C59.808016,82.7163642 60.7908672,78.8386683 59.6568507,69.5921491 C59.5056854,68.6967082 59.1274953,65.6401971 57.6905945,62.3587338 C55.573173,57.3622828 52.5482061,52.5902381 52.1705697,51.6205411 C51.4894953,50.0551575 50.5819499,43.2694627 50.4307846,38.6464761 C50.5066441,42.523626 50.8089747,49.7575872 51.8676854,52.5907841 C52.170016,53.559935 54.9679581,57.8105493 56.9336606,62.9555124 C58.2952556,66.535092 58.5975862,69.8160093 58.824611,70.7851603 C59.7321565,75.0357745 58.5975862,82.1943877 57.0848259,88.9800824 C56.4623196,91.9894184 54.6082005,95.6057917 52.3258586,97.7878685 C52.2932588,97.8111591 52.2606157,97.8342967 52.2279311,97.8572786 Z M53.3638096,30.09126 C59.1185867,21.4019051 66.5137711,12.7826419 75.6886771,4.71745782 C68.3535614,7.17828228 61.8501317,10.906374 57.0100738,17.6178133 C59.8838755,11.7270134 64.5722143,5.83566694 69.7146028,-0.0551329511 C62.6812639,4.94131805 56.5560242,10.6082577 52.6993713,18.1392438 L55.4220077,7.47639858 C51.6107043,14.172777 48.9168567,21.0815235 47.8531404,27.870584 C45.1731418,26.7010616 42.1892309,25.6707731 42.1892309,25.6707731 L40.6036244,26.7646908 C45.5195418,35.4886875 43.5508259,39.7641392 41.1305201,41.4048709 C36.2146028,44.7605902 29.0300986,48.9364024 25.47633,52.5902381 C18.5941565,59.524991 16.6279003,66.1616276 17.2331151,74.8861704 C17.9136358,86.0720835 26.1568507,95.3928589 37.197454,99.0466945 C42.0369581,100.61317 46.4988259,100.836484 51.490049,100.836484 C59.5062391,100.836484 67.7489058,98.7485782 73.7229802,93.8269293 C80.0752447,88.6071641 83.8565918,80.7775162 83.8565918,72.6497521 C83.8565918,64.4471859 80.378129,56.6917942 74.2523356,51.1739126 C71.0003438,48.2659137 66.9166661,45.8798913 62.6818176,43.568125 C60.7914209,42.523626 54.9679581,38.0496975 56.9342143,31.6369211 C56.9342143,31.6369211 54.9328871,30.7374069 53.3638096,30.09126 L53.3638096,30.09126 Z M50.2063899,70.5683926 C50.2816957,73.1782752 51.3448362,76.522261 51.7983321,79.9527824 C52.1770759,82.4884035 52.0126213,85.0350865 51.9367618,87.2725968 C51.8620375,89.8624029 50.987023,94.5028343 49.7911007,96.7593563 C48.6633246,96.2493754 48.222448,95.6677811 47.4897061,94.7289167 C46.5827143,93.4611035 45.9665635,92.1932902 45.3613486,90.7021627 C44.9078528,89.5834076 44.3776668,88.3030363 44.1500883,86.8119088 C43.8477577,84.5749446 43.9324767,81.0753541 46.5033941,77.49578 C48.4696503,74.6620317 48.9202391,74.446498 49.6007598,71.1655807 C48.6926606,74.0735796 48.0157391,74.3700579 45.8977639,76.8303418 C43.5538713,79.5150265 43.1637763,83.4692935 43.1637763,86.6754087 C43.1637763,88.018024 43.7066978,89.50765 44.2366069,90.9239754 C44.841268,92.4156489 45.3602412,93.9007704 46.1919271,95.0189795 C47.4422025,96.8321491 49.0424615,97.8632165 49.8257081,98.0561076 C49.830902,98.0573852 49.8378899,98.0549009 49.8430118,98.0561076 C49.8597951,98.0600551 49.8789371,98.0700197 49.894923,98.0731701 L49.894923,97.9878575 C51.3621787,96.3747699 52.2451501,94.7722746 52.542392,93.1591652 C52.9205821,91.2203172 53.007516,89.2772378 53.2345408,86.9654715 C53.4610118,85.0266235 53.2966957,82.4151029 52.7673404,79.7309697 C52.0115139,76.3752503 50.7357453,72.953869 50.2063899,70.5683926 Z" id="path2554" sketch:type="MSShapeGroup"></path>
        </g>
    </g>
</svg>