<?xml version="1.0" encoding="UTF-8" standalone="no"?>
<svg
   xmlns:dc="http://purl.org/dc/elements/1.1/"
   xmlns:cc="http://creativecommons.org/ns#"
   xmlns:rdf="http://www.w3.org/1999/02/22-rdf-syntax-ns#"
   xmlns:svg="http://www.w3.org/2000/svg"
   xmlns="http://www.w3.org/2000/svg"
   xmlns:sodipodi="http://sodipodi.sourceforge.net/DTD/sodipodi-0.dtd"
   xmlns:inkscape="http://www.inkscape.org/namespaces/inkscape"
   version="1.1"
   id="Layer_1"
   x="0px"
   y="0px"
   width="100px"
   height="100px"
   viewBox="0 0 100 100"
   enable-background="new 0 0 100 100"
   xml:space="preserve"
   inkscape:version="0.48.5 r10040"
   sodipodi:docname="censorhip-tampering.svg"><metadata
     id="metadata17"><rdf:RDF><cc:Work
         rdf:about=""><dc:format>image/svg+xml</dc:format><dc:type
           rdf:resource="http://purl.org/dc/dcmitype/StillImage" /></cc:Work></rdf:RDF></metadata><defs
     id="defs15" /><sodipodi:namedview
     pagecolor="#ffffff"
     bordercolor="#666666"
     borderopacity="1"
     objecttolerance="10"
     gridtolerance="10"
     guidetolerance="10"
     inkscape:pageopacity="0"
     inkscape:pageshadow="2"
     inkscape:window-width="1721"
     inkscape:window-height="1005"
     id="namedview13"
     showgrid="false"
     inkscape:zoom="4.7191457"
     inkscape:cx="8.5594974"
     inkscape:cy="50.61139"
     inkscape:window-x="86"
     inkscape:window-y="54"
     inkscape:window-maximized="0"
     inkscape:current-layer="text3000" /><g
     id="g3"><g
       style="font-size:40px;font-style:normal;font-variant:normal;font-weight:normal;font-stretch:normal;line-height:125%;letter-spacing:0px;word-spacing:0px;fill:#000000;fill-opacity:1;stroke:none;font-family:Blackout;-inkscape-font-specification:Blackout"
       id="text3000"><path
         d="m 52.782221,25.995585 c 2.111982,4.9e-5 4.04798,0.352048 5.808,1.056 1.759976,0.660047 3.277975,1.606046 4.554,2.838 1.319972,1.188044 2.331971,2.640042 3.036,4.356 0.74797,1.672039 1.121969,3.564037 1.122,5.676 -3.1e-5,1.804033 -0.19803,3.300031 -0.594,4.488 -0.39603,1.144029 -0.924029,2.134028 -1.584,2.97 -0.616028,0.836026 -1.342027,1.562026 -2.178,2.178 -0.836025,0.572024 -1.694025,1.188024 -2.574,1.848 -0.880023,0.616023 -1.760022,1.320022 -2.64,2.112 -0.88002,0.79202 -1.694019,1.782019 -2.442,2.97 -0.264018,0.484018 -0.440018,1.144017 -0.528,1.98 -0.04402,0.440016 -0.06602,0.902015 -0.066,1.386 l -9.108,0 0,-1.98 c -9e-6,-1.627982 0.153991,-3.05798 0.462,-4.29 0.30799,-1.231978 0.72599,-2.309977 1.254,-3.234 0.571989,-0.967975 1.209988,-1.781974 1.914,-2.442 0.747987,-0.703973 1.561986,-1.319972 2.442,-1.848 1.803983,-1.14397 3.013982,-2.111969 3.63,-2.904 0.659981,-0.791968 0.98998,-1.583967 0.99,-2.376 -2e-5,-1.143965 -0.440019,-2.045964 -1.32,-2.706 -0.836017,-0.703963 -1.826016,-1.055962 -2.97,-1.056 -1.320014,3.8e-5 -2.420013,0.418037 -3.3,1.254 -0.880011,0.836036 -1.320011,1.826035 -1.32,2.97 l -10.296,-2.508 c 0,-2.111962 0.395999,-3.95996 1.188,-5.544 0.835998,-1.583957 1.957996,-2.903956 3.366,-3.96 1.451994,-1.055954 3.123992,-1.847953 5.016,-2.376 1.891988,-0.571952 3.915986,-0.857951 6.072,-0.858 l 0.066,0 m 1.914,49.038 -9.042,0 0,-9.108 9.042,0 0,9.108"
         style="font-size:66px;font-family:Blackout;-inkscape-font-specification:Blackout"
         id="path2999" /></g><path
       inkscape:connector-curvature="0"
       d="m 50.220954,0.41475424 c -27.57,0 -49.99999982,22.43000076 -49.99999982,50.00000076 0,27.57 22.42999982,49.999995 49.99999982,49.999995 27.569997,0 49.999996,-22.429995 49.999996,-49.999995 0,-27.57 -22.429999,-50.00000076 -49.999996,-50.00000076 z m -4.34375,7.18749996 0,9.4062508 9.09375,0 0,-9.3437508 C 75.474101,9.9233396 91.688051,26.594936 93.158451,47.321005 l -9.09375,0 0,9.15625 8.78125,0 c -2.73001,19.330832 -18.36178,34.5378 -37.874997,36.6875 l 0,-8.625 -9.09375,0 0,8.6875 C 26.172934,91.248001 10.37694,75.944727 7.6272042,56.477255 l 8.9062498,0 0,-9.15625 -9.2499998,0 C 8.7687462,26.460843 25.183719,9.6807886 45.877204,7.6022542 z"
       id="path5" /></g></svg>