<?xml version="1.0" encoding="UTF-8" standalone="no"?>
<!-- Created with Inkscape (http://www.inkscape.org/) -->

<svg
   xmlns:dc="http://purl.org/dc/elements/1.1/"
   xmlns:cc="http://creativecommons.org/ns#"
   xmlns:rdf="http://www.w3.org/1999/02/22-rdf-syntax-ns#"
   xmlns:svg="http://www.w3.org/2000/svg"
   xmlns="http://www.w3.org/2000/svg"
   xmlns:sodipodi="http://sodipodi.sourceforge.net/DTD/sodipodi-0.dtd"
   xmlns:inkscape="http://www.inkscape.org/namespaces/inkscape"
   width="100"
   height="100"
   id="svg2"
   version="1.1"
   inkscape:version="0.48.5 r10040"
   sodipodi:docname="censorship-confirmed.svg">
  <defs
     id="defs4" />
  <sodipodi:namedview
     id="base"
     pagecolor="#ffffff"
     bordercolor="#666666"
     borderopacity="1.0"
     inkscape:pageopacity="0.0"
     inkscape:pageshadow="2"
     inkscape:zoom="0.51786584"
     inkscape:cx="74.944438"
     inkscape:cy="49.497831"
     inkscape:document-units="px"
     inkscape:current-layer="layer1"
     showgrid="false"
     inkscape:window-width="1567"
     inkscape:window-height="1003"
     inkscape:window-x="164"
     inkscape:window-y="44"
     inkscape:window-maximized="0" />
  <metadata
     id="metadata7">
    <rdf:RDF>
      <cc:Work
         rdf:about="">
        <dc:format>image/svg+xml</dc:format>
        <dc:type
           rdf:resource="http://purl.org/dc/dcmitype/StillImage" />
        <dc:title />
      </cc:Work>
    </rdf:RDF>
  </metadata>
  <g
     inkscape:label="Layer 1"
     inkscape:groupmode="layer"
     id="layer1"
     transform="translate(0,-952.36218)">
    <path
       style="fill:#000000;stroke:none"
       d="m 81.535971,996.28785 c -1.225144,0.93396 -2.465518,1.83316 -3.738325,2.69045 3.417136,0.82969 6.572576,2.3527 9.289171,4.418 -0.106327,0.3531 -5.154357,4.2764 -5.154357,4.2764 -0.366305,0.2694 -1.046994,0.4814 -1.500994,0.4814 l -0.339848,0 c -0.45323,0 -0.821299,-0.3672 -0.821299,-0.8212 l 0,-2.6905 c 0,-0.454 -0.366504,-0.8213 -0.821298,-0.8213 l -1.217788,0 c -0.453999,0 -0.821298,-0.368 -0.821298,-0.8213 l 0,-3.08691 c -1.604604,1.02911 -3.227634,2.00081 -4.899472,2.88871 -0.297252,0.1577 -0.606551,0.2994 -0.90626,0.4531 l 1.30275,0.9062 c 0.371746,0.2601 1.046223,0.4815 1.500994,0.4815 l 1.217787,0 c 0.454024,0 0.821299,0.3127 0.821299,0.6797 0,0.3656 -0.254438,0.9155 -0.566413,1.2461 l -1.75588,1.8692 c -0.313539,0.3282 -0.198344,0.5932 0.254886,0.5947 l 1.189467,0 c 0.45246,8e-4 0.821298,0.3666 0.821298,0.8213 l 0,2.9738 c -0.0015,0.4531 0.367275,0.8212 0.821299,0.8212 l 1.33107,0 c 0.454001,0 0.821299,0.2777 0.821299,0.6231 0,0.3445 -0.367298,0.6514 -0.821299,0.6514 l -4.078172,0 c -0.45323,0 -1.112579,0.2066 -1.472673,0.4814 l -1.670918,1.2745 c -0.36089,0.2746 -0.652146,0.8769 -0.651375,1.3309 l 0,4.9279 c 0,0.4539 -0.366527,0.8213 -0.821299,0.8213 l -0.254886,0 c -0.45323,0 -0.821298,-0.3674 -0.821298,-0.8213 l 0,-2.8322 c 0,-0.454 -0.366523,-0.8212 -0.821299,-0.8212 l -2.20901,0 c -0.45245,0 -0.846514,0.3672 -0.849619,0.8212 l 0,2.2941 c -0.003,0.454 0.296711,1.0454 0.651375,1.3311 l 3.285194,2.6337 c 0.35232,0.2848 0.991123,0.509 1.444353,0.5099 l 5.494204,0 c 0.45323,7e-4 1.15563,0.186 1.557636,0.3965 l 6.995198,3.6532 c 0.402004,0.2104 0.736337,0.7632 0.736337,1.2178 l 0,0.255 c 0,0.4539 -0.173377,1.1478 -0.368169,1.5576 l -2.095727,4.4463 c -0.195586,0.4099 -0.630731,1.0191 -0.962902,1.3311 l -6.853595,6.4005 c -0.330607,0.3088 -0.254986,0.5664 0.198244,0.5664 l 0.792978,0 c 0.45323,0 0.821299,0.3114 0.821299,0.708 0,0.3996 -0.368069,0.7363 -0.821299,0.7363 l -3.370156,0 c -0.454025,0 -0.821298,-0.3664 -0.821298,-0.8212 l 0,-8.7795 c 0,-0.4563 0.367273,-0.8213 0.821298,-0.8213 l 0.934581,0 c 0.454771,0 0.821299,-0.3955 0.821299,-0.8497 l 0,-0.9344 c 0,-0.4548 -0.367298,-0.8213 -0.821299,-0.8213 l -0.934581,0 c -0.454025,0 -0.821298,-0.3674 -0.821298,-0.8214 l 0,-5.1543 c 0,-0.454 -0.366528,-0.8213 -0.821299,-0.8213 l -1.416032,0 c -0.452437,0 -1.103267,-0.2183 -1.472674,-0.4814 l -4.446341,-3.1436 c -0.37096,-0.2616 -0.874012,-0.7694 -1.104504,-1.1612 l -2.067407,-3.5401 c -0.230493,-0.3912 -0.792106,-0.708 -1.246109,-0.708 l -0.991222,0 c -0.454,0 -0.992345,-0.328 -1.189467,-0.7363 l -2.407255,-5.0129 c -0.194018,-0.4081 -0.368168,-1.102 -0.368168,-1.5575 l 0,-2.832 c 0,-0.1136 -0.01661,-0.2252 -0.05664,-0.3116 -2.050006,0.2213 -4.09886,0.2951 -6.145579,0.2266 -2.462605,4.2517 -3.908249,9.1768 -3.908249,14.4435 0,15.9543 12.934137,28.887 28.887055,28.887 15.952931,0 28.887058,-12.9327 28.887058,-28.887 0,-12.5503 -7.99263,-23.23 -19.173078,-27.21615 z"
       id="path12"
       inkscape:connector-curvature="0" />
    <path
       id="path5"
       d="m 89.266072,977.28256 c -0.0043,-0.0368 -0.0089,-0.0707 -0.0089,-0.10629 0,-0.0178 -0.003,-0.0368 -0.003,-0.0531 -0.0043,-0.0267 -0.0089,-0.0517 -0.01331,-0.0784 -0.003,-0.0282 -0.0072,-0.0608 -0.01185,-0.0872 0,0 0,-0.0142 0,-0.0142 -0.107576,-0.67215 -0.426733,-1.3028 -0.905519,-1.78582 -2.768646,-3.27777 -6.061175,-6.19825 -9.409219,-8.86458 -7.210427,-5.74199 -15.449545,-10.54804 -24.552579,-12.48133 -5.262322,-1.11721 -10.553269,-1.16494 -15.840742,-0.21957 -4.807826,0.85967 -9.441294,2.64992 -13.782483,4.86427 -6.791478,3.47118 -12.992305,8.2539 -18.395134,13.61687 -0.9974729,0.9913 -1.994942,2.00524 -2.9048213,3.08434 -1.2091091,1.4346 -1.2091091,3.13281 0,4.56755 2.7686463,3.27941 6.0568316,6.19649 9.4048753,8.8618 7.20957,5.74639 15.453889,10.55065 24.556049,12.48567 5.25885,1.1138 10.549795,1.1615 15.840742,0.2196 4.808699,-0.8612 9.441314,-2.64992 13.783357,-4.86762 6.787153,-3.47133 12.992303,-8.25226 18.394262,-13.6142 1.001815,-0.99233 1.995815,-2.0054 2.905693,-3.08449 0.483117,-0.4839 0.797965,-1.11101 0.905519,-1.78317 0,0 0.0043,0 0.0043,-0.0142 0,-0.031 0.0043,-0.0604 0.0072,-0.09 0.0043,-0.0266 0.01331,-0.0517 0.01331,-0.0784 0.003,-0.0179 0.003,-0.0356 0.003,-0.0531 0.0043,-0.0369 0.0089,-0.0708 0.0089,-0.10641 0.003,-0.0531 0.003,-0.10785 0.003,-0.16126 0,-0.0562 -0.003,-0.10797 -0.003,-0.16394 z m -43.365786,16.85033 c -9.21753,0 -16.687304,-7.46975 -16.687304,-16.68733 0,-9.21747 7.469774,-16.68894 16.687304,-16.68894 9.217517,0 16.690763,7.47147 16.690763,16.68894 0,9.21758 -7.473246,16.68733 -16.690763,16.68733 z"
       inkscape:connector-curvature="0" />
    <path
       id="path7"
       d="m 45.900286,971.91962 c -3.052271,0 -5.522543,2.47542 -5.522543,5.52683 0,3.0505 2.470272,5.52609 5.522543,5.52609 3.052258,0 5.521658,-2.47559 5.521658,-5.52609 0,-3.05141 -2.4694,-5.52683 -5.521658,-5.52683 z"
       inkscape:connector-curvature="0" />
  </g>
</svg>
