<?xml version="1.0" encoding="utf-8"?>
<!-- Generator: Adobe Illustrator 16.2.1, SVG Export Plug-In . SVG Version: 6.00 Build 0)  -->
<!DOCTYPE svg PUBLIC "-//W3C//DTD SVG 1.1//EN" "http://www.w3.org/Graphics/SVG/1.1/DTD/svg11.dtd">
<svg version="1.1" id="Layer_1" xmlns="http://www.w3.org/2000/svg" xmlns:xlink="http://www.w3.org/1999/xlink" x="0px" y="0px"
	 width="100px" height="100px" viewBox="0 0 100 100" enable-background="new 0 0 100 100" xml:space="preserve">
<path d="M92.812,49.125c-2.345,0-4.375,1.334-5.383,3.281l-27.775-4.741c-0.092-0.628-0.235-1.234-0.43-1.82l22.734-11.268
	c1.703,1.74,4.389,2.262,6.658,1.072C91.389,34.191,92.453,30.771,91,28c-1.453-2.768-4.875-3.834-7.646-2.381
	c-2.172,1.143-3.273,3.49-2.957,5.785l-22.842,11.32c-0.492-0.637-1.05-1.221-1.673-1.732l18.902-26.375
	c0.938,0.109,1.906,0.016,2.84-0.373c2.886-1.207,4.248-4.521,3.043-7.41c-1.204-2.885-4.521-4.246-7.406-3.042
	c-2.885,1.205-4.247,4.521-3.042,7.408c0.317,0.76,0.788,1.403,1.353,1.935L52.777,39.235c-0.528-0.188-1.07-0.346-1.633-0.45
	l-1.179-19.699c2-0.823,3.41-2.789,3.41-5.086c0-3.037-2.463-5.5-5.5-5.5s-5.5,2.463-5.5,5.5c0,2.541,1.726,4.673,4.066,5.305
	l1.161,19.416c-0.691,0.103-1.359,0.267-1.999,0.496L24.944,12.771c0.818-1.131,1.306-2.518,1.306-4.021
	c0-3.797-3.078-6.875-6.875-6.875S12.5,4.953,12.5,8.75s3.078,6.875,6.875,6.875c1.009,0,1.964-0.223,2.827-0.613l20.281,25.947
	c-1.074,0.875-1.979,1.949-2.647,3.174l-18.602-6.435c0.005-0.1,0.03-0.194,0.03-0.297c0-3.223-2.614-5.84-5.84-5.84
	c-3.225,0-5.839,2.617-5.839,5.84c0,3.228,2.614,5.841,5.839,5.841c1.855,0,3.489-0.882,4.558-2.229l18.715,6.473
	c-0.091,0.563-0.152,1.136-0.152,1.726c0,0.078,0.01,0.153,0.011,0.231L11.63,58.19c-1-1.605-2.767-2.682-4.797-2.682
	c-3.127,0-5.662,2.535-5.662,5.662c0,3.128,2.535,5.662,5.662,5.662c2.967,0,5.374-2.291,5.617-5.195l26.773-8.72
	c0.554,1.49,1.428,2.82,2.546,3.905L30.218,73.656c-2.56-0.679-5.217,0.769-6.001,3.321c-0.801,2.615,0.665,5.387,3.283,6.189
	c2.617,0.803,5.387-0.667,6.191-3.281c0.449-1.464,0.167-2.963-0.607-4.151l11.601-16.906c1.362,0.635,2.875,1,4.477,1
	c0.207,0,0.405-0.019,0.609-0.029l2.371,23.204C49.442,83.932,47.5,86.486,47.5,89.5c0,3.797,3.078,6.875,6.875,6.875
	s6.875-3.078,6.875-6.875c0-3.365-2.42-6.161-5.613-6.754L53.346,58.97c1.396-0.599,2.625-1.493,3.637-2.597l16.47,17.112
	c-0.521,0.841-0.827,1.828-0.827,2.89c0,3.037,2.463,5.5,5.5,5.5s5.5-2.463,5.5-5.5s-2.463-5.5-5.5-5.5
	c-0.615,0-1.205,0.105-1.758,0.292c-0.045-0.029-0.123-0.015-0.268,0.09L58.917,53.404c0.301-0.699,0.524-1.437,0.671-2.203
	l27.199,4.647c0.33,3.037,2.9,5.401,6.025,5.401c3.348,0,6.062-2.714,6.062-6.062C98.875,51.84,96.16,49.125,92.812,49.125z"/>
</svg>
