<?xml version="1.0" encoding="utf-8"?>
<!-- Generator: Adobe Illustrator 16.2.1, SVG Export Plug-In . SVG Version: 6.00 Build 0)  -->
<!DOCTYPE svg PUBLIC "-//W3C//DTD SVG 1.1//EN" "http://www.w3.org/Graphics/SVG/1.1/DTD/svg11.dtd">
<svg version="1.1" id="Layer_1" xmlns="http://www.w3.org/2000/svg" xmlns:xlink="http://www.w3.org/1999/xlink" x="0px" y="0px"
	 width="100px" height="100px" viewBox="0 0 100 100" enable-background="new 0 0 100 100" xml:space="preserve">
<path d="M94.273,62.561l-4.411-26.07c1.115-0.836,1.847-2.156,1.847-3.657c0-2.531-2.052-4.583-4.584-4.583
	c-0.617,0-1.205,0.126-1.742,0.348L72.105,14.91c1.107-0.986,1.819-2.407,1.819-4.007c0-2.971-2.405-5.379-5.379-5.379
	c-1.854,0-3.487,0.939-4.457,2.368L42.86,3.369c-0.359-1.761-1.916-3.086-3.784-3.086c-2.134,0-3.862,1.729-3.862,3.862
	c0,0.676,0.19,1.304,0.496,1.857L18.896,23.405c-0.239-0.036-0.479-0.073-0.729-0.073c-2.669,0-4.833,2.164-4.833,4.834
	c0,1.788,0.982,3.332,2.426,4.168L7.01,54.818c-0.223-0.031-0.445-0.068-0.677-0.068c-2.669,0-4.833,2.164-4.833,4.834
	c0,2.016,1.235,3.74,2.988,4.465L4.162,87.48C2.32,88.164,1,89.921,1,92.001c0,2.67,2.164,4.834,4.833,4.834
	c2.442,0,4.441-1.817,4.766-4.172l40.078-2.649c0.705,1.5,2.218,2.545,3.985,2.545c1.021,0,1.947-0.359,2.695-0.941l19.896,6.713
	c0.665,1.162,1.903,1.954,3.338,1.954c2.133,0,3.862-1.729,3.862-3.862c0-0.268-0.026-0.525-0.079-0.777l9.846-24.393
	c2.121-0.322,3.75-2.138,3.75-4.35C97.973,64.71,96.369,62.904,94.273,62.561z M51.657,39.797L67.333,60
	c-0.463,0.561-0.812,1.205-1.024,1.918l-30.252-2.072c-0.182-0.445-0.439-0.847-0.738-1.214l11.368-18.284
	c0.597,0.202,1.233,0.317,1.898,0.317C49.711,40.665,50.762,40.344,51.657,39.797z M53.641,37.81c0.324-0.537,0.558-1.133,0.7-1.763
	l28.458-1.763c0.188,0.562,0.479,1.07,0.854,1.511L72.047,58.029c-0.16-0.014-0.314-0.049-0.479-0.049
	c-0.711,0-1.385,0.146-2.008,0.391L53.641,37.81z M65.459,15.297c0.875,0.616,1.938,0.985,3.088,0.985
	c0.373,0,0.739-0.039,1.092-0.111l13.624,14.215c-0.27,0.425-0.471,0.896-0.589,1.399l-28.312,1.762
	c-0.17-0.814-0.495-1.572-0.963-2.227L65.459,15.297z M42.395,6.091l20.812,4.433c-0.01,0.128-0.039,0.25-0.039,0.379
	c0,0.813,0.193,1.577,0.518,2.268L51.354,29.522c-0.681-0.362-1.44-0.594-2.249-0.664c-0.27-0.042-0.545-0.065-0.827-0.065
	c-0.183,0-0.354,0.036-0.531,0.054L41.208,7.362C41.698,7.037,42.097,6.598,42.395,6.091z M37.964,7.824
	c0.173,0.052,0.349,0.096,0.531,0.124l6.653,21.823c-1.042,0.72-1.799,1.796-2.151,3.043c-0.03,0.086-0.06,0.171-0.086,0.259l0,0
	L22.92,27.378c-0.184-1.117-0.749-2.095-1.559-2.814L37.964,7.824z M22.583,30.117l20.178,5.65c0.224,1.291,0.865,2.436,1.782,3.295
	L33.291,57.159c-0.532-0.202-1.104-0.326-1.708-0.326c-0.123,0-0.238,0.026-0.358,0.036l-10.108-24.9
	C21.746,31.48,22.257,30.853,22.583,30.117z M18.184,32.997c0.218,0,0.426-0.035,0.636-0.064l10.043,24.74
	c-0.918,0.627-1.589,1.569-1.904,2.663l-15.881-1.637c-0.218-1.176-0.866-2.188-1.767-2.897L18.184,32.997z M8.293,87.859
	c-0.418-0.248-0.871-0.44-1.358-0.555l0.301-22.979c1.701-0.322,3.07-1.536,3.636-3.137l16.04,1.652
	c0.144,0.573,0.38,1.108,0.709,1.58L8.293,87.859z M50.338,87.273l-40.156,2.652c-0.042-0.089-0.092-0.173-0.14-0.259l19.494-23.638
	c0.624,0.294,1.312,0.471,2.047,0.471c0.438,0,0.853-0.077,1.256-0.186L50.95,85.775C50.661,86.227,50.446,86.729,50.338,87.273z
	 M56.46,84.12c-0.55-0.246-1.155-0.39-1.797-0.39c-0.558,0-1.083,0.112-1.573,0.302L35.199,64.844
	c0.547-0.621,0.95-1.371,1.12-2.215l29.865,2.047c0.142,0.646,0.397,1.248,0.743,1.787L56.46,84.12z M76.915,95.302l-17.99-6.071
	c0.089-0.35,0.15-0.709,0.15-1.086c0.001-0.787-0.222-1.516-0.583-2.154L68.96,68.332c0.78,0.422,1.658,0.684,2.606,0.684
	c0.065,0,0.129-0.018,0.191-0.02l6.979,24.056C77.866,93.533,77.209,94.333,76.915,95.302z M82.447,93.052
	c-0.305-0.167-0.627-0.303-0.975-0.384l-7.06-24.465c1.251-0.76,2.177-1.988,2.519-3.455L89.5,68.635
	c0.389,0.911,1.085,1.647,1.947,2.122L82.447,93.052z M89.275,65.884L76.85,61.99c-0.354-1.24-1.111-2.307-2.146-3.022
	l11.295-21.707c-1.457-0.511,0.734,0.156,1.127,0.156c0.035,0,0.068-0.01,0.104-0.01l4.317,25.589
	C90.419,63.579,89.575,64.62,89.275,65.884z"/>
</svg>
