<?xml version="1.0" encoding="UTF-8" standalone="no"?>
<!-- Generator: Adobe Illustrator 16.2.1, SVG Export Plug-In . SVG Version: 6.00 Build 0)  -->

<svg
   xmlns:dc="http://purl.org/dc/elements/1.1/"
   xmlns:cc="http://creativecommons.org/ns#"
   xmlns:rdf="http://www.w3.org/1999/02/22-rdf-syntax-ns#"
   xmlns:svg="http://www.w3.org/2000/svg"
   xmlns="http://www.w3.org/2000/svg"
   xmlns:sodipodi="http://sodipodi.sourceforge.net/DTD/sodipodi-0.dtd"
   xmlns:inkscape="http://www.inkscape.org/namespaces/inkscape"
   version="1.1"
   id="Layer_1"
   x="0px"
   y="0px"
   width="100px"
   height="100px"
   viewBox="0 0 100 100"
   enable-background="new 0 0 100 100"
   xml:space="preserve"
   inkscape:version="0.48.5 r10040"
   sodipodi:docname="http-headers.svg"><metadata
     id="metadata23"><rdf:RDF><cc:Work
         rdf:about=""><dc:format>image/svg+xml</dc:format><dc:type
           rdf:resource="http://purl.org/dc/dcmitype/StillImage" /><dc:title /></cc:Work></rdf:RDF></metadata><defs
     id="defs21" /><sodipodi:namedview
     pagecolor="#ffffff"
     bordercolor="#666666"
     borderopacity="1"
     objecttolerance="10"
     gridtolerance="10"
     guidetolerance="10"
     inkscape:pageopacity="0"
     inkscape:pageshadow="2"
     inkscape:window-width="1558"
     inkscape:window-height="983"
     id="namedview19"
     showgrid="false"
     inkscape:zoom="3.8303906"
     inkscape:cx="77.384362"
     inkscape:cy="45.06976"
     inkscape:window-x="160"
     inkscape:window-y="116"
     inkscape:window-maximized="0"
     inkscape:current-layer="g3" /><g
     id="g3"><path
       fill="#010101"
       d="M96.223,15H3.777C1.691,15,0,16.691,0,18.777v64.445C0,85.309,1.691,87,3.777,87h92.445   c2.086,0,3.777-1.691,3.777-3.777V18.777C100,16.691,98.309,15,96.223,15z M23.048,19.544c1.368,0,2.479,1.11,2.479,2.479   c0,1.369-1.111,2.479-2.479,2.479s-2.479-1.109-2.479-2.479C20.569,20.654,21.68,19.544,23.048,19.544z M15.494,19.544   c1.369,0,2.479,1.11,2.479,2.479c0,1.369-1.11,2.479-2.479,2.479c-1.368,0-2.479-1.109-2.479-2.479   C13.015,20.654,14.126,19.544,15.494,19.544z M7.94,19.544c1.368,0,2.479,1.11,2.479,2.479c0,1.369-1.11,2.479-2.479,2.479   s-2.479-1.109-2.479-2.479C5.461,20.654,6.572,19.544,7.94,19.544z M94,76.059C94,78.235,92.235,80,90.058,80H7.942   C5.765,80,4,78.235,4,76.059V32.941C4,30.765,5.765,29,7.942,29h82.115C92.235,29,94,30.765,94,32.941V76.059z"
       id="path13" /><path
       d="m 29.5929,38.256813 c -1.042513,1.130101 -0.784021,2.69387 -0.784021,4.614401 v 7.244183 c 0,0.593891 -0.863064,1.087375 -1.033968,1.48259 -0.170903,0.397351 -1.010468,0.698569 -1.279642,0.912199 -0.267037,0.211493 -0.587481,0.358898 -0.927152,0.44435 -0.339672,0.08332 -1.031832,0.123905 -1.031832,0.123905 v 4.6614 c 0,0 0.730614,0.04273 1.066012,0.128177 0.339672,0.08545 0.794703,0.239266 1.066012,0.465713 0.267038,0.226448 0.989106,0.544756 1.157873,0.954925 0.166632,0.408032 0.982697,0.937834 0.982697,1.587268 v 7.073279 c 0,1.920531 -0.258492,2.755823 0.784021,3.883788 1.046785,1.130101 1.674857,1.006196 3.454392,1.006196 h 6.443071 v -4.272594 h -2.94168 c -0.818202,0 -1.040377,0.333262 -1.279642,-0.200812 -0.241402,-0.538347 -0.05127,-0.516984 -0.05127,-1.134373 V 60.32476 c 0,-0.933562 -0.512712,-1.700493 -0.792567,-2.309337 -0.279854,-0.608845 -0.747703,-1.093784 -1.155736,-1.463364 -0.408033,-0.365306 -0.700706,-0.63448 -1.1536,-0.803247 -0.452895,-0.168768 -1.170691,-0.267037 -1.170691,-0.296945 v -0.08332 c 0,-0.02991 0.546892,-0.140996 0.993378,-0.339671 0.457167,-0.198676 0.884427,-0.480667 1.292459,-0.84811 0.410169,-0.365307 1.070285,-0.839565 1.35014,-1.420637 0.281991,-0.576801 0.636617,-1.27537 0.636617,-2.093571 v -7.075416 c 0,-0.619526 -0.190131,-1.32664 0.05127,-1.862851 0.239265,-0.53621 0.46144,-0.933561 1.279642,-0.933561 h 2.94168 v -4.27259 h -6.443071 c -1.779535,0 -2.407607,0.604572 -3.454392,1.734673 z"
       id="path15"
       inkscape:connector-curvature="0"
       style="fill:#010101" /><path
       d="m 70.894348,52.510186 c -0.269174,-0.21363 -1.108738,-0.514848 -1.279642,-0.912199 -0.170904,-0.395215 -1.033968,-0.888699 -1.033968,-1.48259 v -7.244183 c 0,-1.920531 0.258492,-3.4843 -0.784021,-4.616537 -1.046785,-1.127965 -1.674856,-1.732537 -3.454392,-1.732537 h -6.443071 v 4.272594 h 2.941681 c 0.818201,0 1.040376,0.397351 1.279642,0.933561 0.241401,0.536211 0.05127,1.243325 0.05127,1.862851 v 7.075416 c 0,0.820338 0.354625,1.51677 0.636616,2.095707 0.279855,0.578936 0.937834,1.053194 1.35014,1.420637 0.408032,0.367443 0.837428,0.649434 1.292459,0.84811 0.446486,0.196539 0.993378,0.309763 0.993378,0.337535 v 0.08332 c 0,0.02991 -0.717795,0.128177 -1.17069,0.296945 -0.452895,0.170904 -0.745568,0.437941 -1.153601,0.805384 -0.408032,0.367443 -0.875881,0.854518 -1.155736,1.463363 -0.279855,0.608845 -0.792566,1.373639 -0.792566,2.309337 v 6.904512 c 0,0.617389 0.19013,0.596026 -0.05127,1.134373 -0.239266,0.534074 -0.461441,0.200812 -1.279642,0.200812 h -2.941681 v 4.272594 h 6.443071 c 1.779536,0 2.407607,0.123905 3.454392,-1.006196 1.042513,-1.127965 0.784021,-1.963257 0.784021,-3.883788 v -7.073279 c 0,-0.65157 0.816066,-1.181372 0.982697,-1.589405 0.168767,-0.408032 0.890836,-0.72634 1.157873,-0.952788 0.271309,-0.226447 0.726341,-0.382397 1.066012,-0.465713 0.335398,-0.08546 1.066012,-0.128181 1.066012,-0.128181 v -4.6614 c 0,0 -0.69216,-0.04059 -1.031831,-0.126042 -0.339672,-0.08331 -0.660116,-0.23072 -0.927153,-0.442213 z"
       id="path17"
       inkscape:connector-curvature="0"
       style="fill:#010101" /><text
       xml:space="preserve"
       style="font-size:24px;font-style:normal;font-weight:normal;text-align:center;line-height:125%;letter-spacing:0px;word-spacing:0px;text-anchor:middle;fill:#000000;fill-opacity:1;stroke:none;font-family:sans-serif"
       x="47.929878"
       y="59.012012"
       id="text3019"
       sodipodi:linespacing="125%"><tspan
         sodipodi:role="line"
         id="tspan3021"
         x="47.929878"
         y="59.012012">:</tspan></text>
</g></svg>