<?xml version="1.0" encoding="utf-8"?>
<!-- Generator: Adobe Illustrator 12.0.0, SVG Export Plug-In . SVG Version: 6.00 Build 51448)  -->
<!DOCTYPE svg PUBLIC "-//W3C//DTD SVG 1.1//EN" "http://www.w3.org/Graphics/SVG/1.1/DTD/svg11.dtd" [
	<!ENTITY ns_svg "http://www.w3.org/2000/svg">
	<!ENTITY ns_xlink "http://www.w3.org/1999/xlink">
]>
<svg  version="1.1" id="Layer_1" xmlns="&ns_svg;" xmlns:xlink="&ns_xlink;" width="607.001" height="607.001"
	 viewBox="0 0 607.001 607.001" overflow="visible" enable-background="new 0 0 607.001 607.001" xml:space="preserve">
<g>
	<g>
		<path fill-rule="evenodd" clip-rule="evenodd" fill="#FFFFFF" d="M607.001,84.98c-202.334,0-404.667,0-607.001,0
			C0,56.653,0,28.327,0,0c202.333,0,404.667,0,607.001,0C607.001,28.327,607.001,56.653,607.001,84.98z"/>
		<path fill-rule="evenodd" clip-rule="evenodd" d="M0,84.98c202.334,0,404.667,0,607.001,0c0,146.085,0,292.169,0,438.254
			c-202.334,0-404.667,0-607.001,0C0,377.149,0,231.065,0,84.98z M24.28,112.902c-8.859,32.182,20.317,43.948,37.634,59.486
			c38.219,34.293,78.792,71.021,115.33,99.548c0.262-60.599,44.815-98.941,100.762-105.618
			c85.459-10.199,150.852,29.009,152.964,105.618c25.529-19.078,50.766-42.208,76.481-64.342
			c25.951-22.336,51.757-45.472,76.482-67.984c-0.706-9.815,1.478-22.521-1.214-30.35c-185.338,0-370.675,0-556.013,0
			C25.182,109.758,24.227,110.826,24.28,112.902z M24.28,435.826c15.549-7.067,27.052-20.162,40.063-30.35
			c40.012-31.333,80.085-60.709,117.758-93.479C132.455,263.31,78.149,219.281,25.494,173.602
			C22.614,253.147,25.11,354.257,24.28,435.826z M579.078,174.816c-24.01,24.325-52.859,46.351-78.909,69.198
			c-25.78,22.61-51.696,43.889-74.055,69.198c52.431,40.644,103.043,83.104,156.606,122.614c2.021-84.182,2.021-176.828,0-261.01
			c-0.81,0-1.619,0-2.428,0C579.888,174.816,579.483,174.816,579.078,174.816z M268.294,356.916
			c31.501-7.158,34.829-75.352-13.354-63.128C223.657,301.726,219.128,368.089,268.294,356.916z M336.278,355.702
			c44.309,15.651,50.408-40.983,26.708-58.271c-6.143-4.481-15.606-6.108-26.708-3.643
			C307.18,300.252,310.752,346.686,336.278,355.702z M196.668,364.2c-2.24-10.515,4.018-20.258-6.07-27.922
			c-36.369,30.12-86.483,67.561-127.47,100.762c-11.125,9.012-35.497,23.406-38.848,35.206c-1.818,6.404,0.504,18.63,0,25.494
			c183.315,2.023,375.125,2.023,558.441,0c1.985-7.123,1.985-22.013,0-29.136c-49.576-41.813-105.088-86.054-156.606-125.042
			c-2.2-1.665-5.622-8.463-9.712-4.856c-9.886,7.473-2.322,17.725-4.855,26.708c-5.007,17.755-26.622,20.423-40.063,31.564
			c-4.605,9.065-1.31,13.608-4.856,21.852c-14.485,33.673-109.461,29.234-123.828,2.429c-4.266-7.96-2.529-16.534-6.07-25.494
			C221.98,386.788,200.645,382.866,196.668,364.2z M302.286,355.702c-4.71,8.953-23.792,27.939-8.498,37.634
			c5.596-0.474,5.719-6.421,10.926-7.283c3.509,2.157,3.983,7.348,9.713,7.283c2.525-0.711,3.923-2.551,6.069-3.642
			C319.604,373.187,312.726,362.664,302.286,355.702z"/>
		<path fill-rule="evenodd" clip-rule="evenodd" fill="#FFFFFF" d="M26.708,109.26c185.337,0,370.675,0,556.013,0
			c2.691,7.829,0.508,20.535,1.214,30.35c-24.726,22.512-50.531,45.648-76.482,67.984c-25.716,22.134-50.952,45.264-76.481,64.342
			c-2.112-76.609-67.505-115.817-152.964-105.618c-55.947,6.677-100.5,45.019-100.762,105.618
			c-36.538-28.527-77.111-65.255-115.33-99.548C44.597,156.85,15.42,145.084,24.28,112.902
			C24.227,110.826,25.182,109.758,26.708,109.26z"/>
		<path fill-rule="evenodd" clip-rule="evenodd" fill="#FFFFFF" d="M25.494,173.602c52.655,45.679,106.96,89.708,156.606,138.396
			c-37.673,32.77-77.746,62.146-117.758,93.479c-13.011,10.188-24.514,23.282-40.063,30.35
			C25.11,354.257,22.614,253.147,25.494,173.602z"/>
		<path fill-rule="evenodd" clip-rule="evenodd" fill="#FFFFFF" d="M580.293,174.816c0.809,0,1.618,0,2.428,0
			c2.021,84.182,2.021,176.828,0,261.01c-53.563-39.51-104.176-81.971-156.606-122.614c22.358-25.309,48.274-46.587,74.055-69.198
			c26.05-22.847,54.899-44.873,78.909-69.198C579.483,174.816,579.888,174.816,580.293,174.816z"/>
		<path fill-rule="evenodd" clip-rule="evenodd" fill="#FFFFFF" d="M254.94,293.788c48.183-12.224,44.855,55.97,13.354,63.128
			C219.128,368.089,223.657,301.726,254.94,293.788z"/>
		<path fill-rule="evenodd" clip-rule="evenodd" fill="#FFFFFF" d="M336.278,293.788c11.102-2.466,20.565-0.839,26.708,3.643
			c23.7,17.288,17.601,73.923-26.708,58.271C310.752,346.686,307.18,300.252,336.278,293.788z"/>
		<path fill-rule="evenodd" clip-rule="evenodd" fill="#FFFFFF" d="M236.73,395.765c3.541,8.96,1.804,17.534,6.07,25.494
			c14.367,26.806,109.342,31.244,123.828-2.429c3.547-8.243,0.251-12.786,4.856-21.852c13.44-11.142,35.056-13.81,40.063-31.564
			c2.533-8.983-5.03-19.235,4.855-26.708c4.09-3.606,7.512,3.191,9.712,4.856c51.519,38.988,107.03,83.229,156.606,125.042
			c1.985,7.123,1.985,22.013,0,29.136c-183.315,2.023-375.125,2.023-558.441,0c0.504-6.864-1.818-19.09,0-25.494
			c3.351-11.8,27.724-26.194,38.848-35.206c40.987-33.201,91.101-70.642,127.47-100.762c10.087,7.664,3.83,17.407,6.07,27.922
			C200.645,382.866,221.98,386.788,236.73,395.765z"/>
		<path fill-rule="evenodd" clip-rule="evenodd" fill="#FFFFFF" d="M320.496,389.694c-2.146,1.091-3.544,2.931-6.069,3.642
			c-5.729,0.064-6.204-5.126-9.713-7.283c-5.207,0.862-5.33,6.81-10.926,7.283c-15.294-9.694,3.788-28.681,8.498-37.634
			C312.726,362.664,319.604,373.187,320.496,389.694z"/>
		<path fill-rule="evenodd" clip-rule="evenodd" fill="#FFFFFF" d="M0,523.234c202.334,0,404.667,0,607.001,0
			c0,27.922,0,55.844,0,83.767c-202.334,0-404.667,0-607.001,0C0,579.078,0,551.156,0,523.234z"/>
	</g>
</g>
</svg>
